<svg xmlns="http://www.w3.org/2000/svg" width="731" height="815" viewBox="0 0 731 815"><path fill="#4A6EEA" d="m263 200 2.706.633c40.766 9.883 73.678 33.573 103.614 62.028a252 252 0 0 0 12.198 10.865L383 275v2l1.733.743c2.654 1.472 4.412 3.193 6.533 5.362l2.449 2.483 2.535 2.6a2619 2619 0 0 0 4.953 5.042l2.208 2.263a141 141 0 0 0 6.184 5.622c8.903 7.73 17.144 16.239 25.516 24.536q3.397 3.363 6.821 6.698 4.16 4.055 8.275 8.155a366 366 0 0 0 3.148 3.08 330 330 0 0 1 4.366 4.326l2.511 2.473c2.376 3.516 2.443 5.45 1.768 9.617-1.585 2.245-2.939 3.832-4.894 5.688l-1.576 1.58a489 489 0 0 1-5.202 5.087q-1.804 1.785-3.603 3.574c-3.16 3.133-6.34 6.244-9.524 9.351-3.231 3.159-6.442 6.338-9.654 9.515a4113 4113 0 0 1-15.622 15.358c-2.066 2.021-4.101 4.039-6.056 6.168C404 418 404 418 400.684 418.164c-4.874-1.54-7.234-4.078-10.622-7.789a3206.087 3206.087 0 0 0-5.237-5.536c-1.832-1.846-3.731-3.545-5.704-5.237-5.439-4.672-10.386-9.821-15.41-14.93-4.146-4.189-8.37-8.182-12.84-12.024-2.929-2.58-5.644-5.357-8.371-8.148-4.092-4.144-8.234-8.123-12.676-11.895-2.032-1.788-3.925-3.676-5.824-5.605-3.155-3.198-6.422-6.183-9.832-9.105a176 176 0 0 1-4.555-4.133C297.293 322.215 283.999 312.742 269 305l-3.227-1.711c-25.462-12.699-55.208-13.552-82.05-4.969-18.294 6.271-33.669 16.475-47.723 29.68l-1.793 1.562C113.31 348.623 101.225 381.454 99 409c-1.723 44.09 8.201 84.641 38.312 118.125 20.445 22.062 50.529 38.395 80.935 40.052 19.944.367 37.915-.402 56.506-8.246 3.911-1.624 7.016-2.439 11.247-1.931 1.809 1.004 1.809 1.004 3.438 2.562l2.027 1.911c8.13 8.105 8.13 8.105 12.031 12.041 3.77 3.795 7.595 7.433 11.684 10.884 2.207 1.942 4.255 4.009 6.32 6.102a172 172 0 0 0 10.316 9.605c2.701 2.344 5.351 4.74 7.996 7.145l2.77 2.516L345 612l1.887 1.484C348 615 348 615 348.137 617.367c-1.701 3.938-4.793 5.593-8.325 7.758l-2.282 1.429c-46.876 28.718-100.734 38.16-154.393 25.993C149.304 644.344 118.433 628.62 92 606l-3.539-2.98C76.286 592.732 76.286 592.732 71 587l-1.547-1.672c-1.862-2.075-3.661-4.193-5.453-6.328l-1.285-1.514C33.992 543.453 16.938 501.773 10 458l-.359-2.187C5.687 430.626 6.672 403.038 11 378l.488-2.848C18.182 337.705 33.579 300.646 59 272l2.094-2.422C84.889 242.507 114.291 221.871 148 209l2.472-.946C185.689 194.853 226.256 191.308 263 200"/><path fill="#A56E89" d="m550 199 2.742.57c30.081 6.343 58.604 19.044 83.258 37.43l1.83 1.359c8.908 6.671 17.128 13.958 25.17 21.641l2.203 2.043C675.842 272.185 684.16 284.649 692 297l1.863 2.91c19.273 31.501 30.14 71.717 30.34 108.629l.021 2.653c.018 2.811.024 5.622.026 8.433l.002 2.914C724.221 450.65 720.162 477.37 711 504l-.643 1.893C701.939 530.44 689.412 552.918 673 573l-1.275 1.583C661.42 587.343 650.012 598.985 637 609l-2.68 2.125C620.596 621.77 605.749 630.703 590 638l-2.523 1.192C539.314 661.619 482.926 664.1 433 646c-6.813-2.686-13.429-5.773-20-9l-2.286-1.122c-26.223-13.036-48.588-31.566-69.972-51.351a583 583 0 0 0-7.43-6.715c-4.729-4.245-9.368-8.584-14-12.937l-2.16-2.028c-3.276-3.087-6.514-6.195-9.672-9.402a117 117 0 0 0-7.074-6.566c-5.59-4.834-10.858-9.998-16.118-15.186q-1.8-1.767-3.619-3.516a544 544 0 0 1-5.263-5.15l-1.647-1.563c-2.365-2.378-3.68-4.139-4.48-7.419 1.058-4.467 3.595-6.687 6.854-9.799l1.907-1.889c2.015-1.988 4.05-3.953 6.085-5.919a3038 3038 0 0 0 4.039-3.983C293.624 487.087 299.08 481.86 305 477c2.391-2.306 4.696-4.683 6.996-7.081 2.326-2.419 4.664-4.825 7.004-7.231l2.406-2.534 2.344-2.392 2.109-2.189C328 454 328 454 330.262 453.564c3.982.634 5.994 3.041 8.686 5.833l1.737 1.739c1.894 1.903 3.77 3.823 5.647 5.743q1.977 1.995 3.957 3.985c3.478 3.503 6.942 7.021 10.402 10.542 4.858 4.939 9.737 9.858 14.613 14.78q3.893 3.929 7.77 7.873c5.332 5.412 10.63 10.783 16.449 15.681 1.951 1.664 3.674 3.504 5.415 5.385 25.424 25.687 60.529 42.451 96.839 42.898 35.253-.364 67.539-15.189 92.223-39.996 25.67-26.609 38.879-63.412 40-100.027l.121-2.402c.93-32.014-9.832-64.874-30.121-89.598l-2.113-2.578c-19.476-22.645-48.647-38.201-78.596-40.643-23.379-.998-50.451 3.026-69.475 17.932C452 312 452 312 448.5 312c-4.281-1.223-4.943-2.435-7.5-6a112 112 0 0 0-3.598-3.148c-5.301-4.567-10.147-9.547-15.047-14.536-3.312-3.349-6.635-6.612-10.214-9.675-5.752-4.948-10.984-10.428-16.307-15.827a2709 2709 0 0 0-4.131-4.173l-2.448-2.484C387 254 387 254 384.741 252.391 383 251 383 251 382.445 248.102c1.111-6.209 7.687-9.568 12.555-13.102l1.964-1.432C420.286 216.821 445.999 205.202 474 199l2.199-.5c23.274-5.051 50.596-4.649 73.801.5"/><path fill="#8546DD" d="M115.41 16.98C127.232 26.198 134.353 37.484 138 52c.295 2.638.525 5.218.676 7.863l.311 4.587.16 2.404c2.538 37.457 11.416 73.277 29.673 106.341 1.355 3.221 1.63 5.344 1.18 8.805-2.35 3.126-5.104 3.91-8.758 5.058l-3.547 1.15c-.622.2-1.244.4-1.886.604-26.81 8.663-52.474 21.242-74.215 39.36C78.885 230.08 77.295 230.85 74 231c-3.58-1.315-4.87-2.926-6.664-6.235l-1.446-2.644-1.515-2.87-1.595-2.989C38.535 170.29 11.88 98.79 27.754 46.332 33.17 31.848 43.107 20.005 57 13c18.724-8.053 41.307-7.95 58.41 3.98"/><path fill="#13C8B5" d="M684 17c13.893 10.817 22.524 24.403 25 42 .284 3.631.334 7.234.312 10.875l-.017 3.129C708.561 121.634 696.141 191.825 663 230c-3.599 1.294-4.582 1.192-8.125-.438-3.012-1.888-5.837-4.003-8.687-6.124-12.55-9.232-26.099-16.837-40.188-23.438l-2.107-1.003a221 221 0 0 0-30.077-11.652l-2.562-.802-2.271-.687c-2.241-.968-3.451-1.965-4.983-3.856-1.218-6.157 2.288-11.253 5-16.562 15.495-31.476 23.705-64.264 26-99.25 1.209-18.161 6.239-33.489 20-46.188 19.717-15.248 48.13-17.046 69-3"/><path fill="#F74762" d="M575.882 332.803c8.353 6.884 20.444 17.132 22.485 28.186.328 5.125-1.254 8.193-4.367 12.01-3.014 3.22-6.156 6.299-9.313 9.376a2304 2304 0 0 0-4.988 4.899l-2.224 2.169a128 128 0 0 0-5.457 6.036c-4.69 5.373-9.737 10.38-14.784 15.416l-3.215 3.22q-4.336 4.342-8.678 8.678-4.56 4.558-9.117 9.119a36817 36817 0 0 1-15.31 15.304 24477 24477 0 0 0-17.649 17.652 27245 27245 0 0 1-15.204 15.205q-4.53 4.529-9.058 9.06a6844 6844 0 0 1-8.522 8.518 2281 2281 0 0 0-3.11 3.11c-5.115 5.126-10.252 10.154-15.764 14.852-2.105 1.817-4.049 3.766-5.982 5.762-3.128 3.228-4.594 4.44-9.125 5.25-6.466-.104-10.212-5.342-14.5-9.625-2.044-1.916-4.116-3.801-6.188-5.687-.51-.47-1.02-.94-1.546-1.422-3.16-2.904-6.36-5.742-9.669-8.477-1.733-1.534-3.349-3.166-4.976-4.812-2.053-2.028-4.16-3.992-6.266-5.965l-5.168-4.95-2.678-2.474c-7.08-6.863-7.08-6.863-7.209-11.631C379 468 379 468 381 465h2c.253-.58.507-1.16.77-1.756 1.37-2.5 2.9-4.148 4.926-6.151l2.297-2.287 2.487-2.446 2.564-2.55q4.066-4.035 8.143-8.06 4.049-4.005 8.09-8.018 2.512-2.495 5.035-4.982c3.49-3.461 6.902-6.931 10.103-10.663 3.983-4.63 8.294-8.91 12.63-13.207q2.237-2.22 4.468-4.444c3.693-3.68 7.392-7.354 11.09-11.03q4.706-4.675 9.405-9.358 2.181-2.169 4.365-4.333c4.565-4.55 8.983-9.15 13.178-14.041 1.781-2.058 3.663-3.986 5.605-5.892l2.16-2.137 4.367-4.29a209 209 0 0 0 11.512-12.323c3.334-3.754 6.924-7.254 10.492-10.782l2.26-2.246q2.073-2.06 4.15-4.116a281 281 0 0 0 4.022-4.078c11.338-10.91 39.828 9.84 48.763 16.993"/><path fill="#1C95F3" d="M298 347c2.104 1.774 3.858 3.423 5.688 5.438 2.646 2.819 5.068 5.399 8.312 7.562v2l1.638.648c3.214 1.839 5.596 4.359 8.159 6.989l1.674 1.69q2.645 2.674 5.279 5.361 3.456 3.51 6.922 7.011l1.676 1.696c3.58 3.597 7.255 7.017 11.173 10.249 2.315 2.123 3.401 3.982 4.041 7.044-1.301 7.665-10.136 14.042-15.5 19.374l-2.013 2.026a206 206 0 0 1-12.094 11.172c-2.417 2.151-4.674 4.447-6.955 6.74l-4.116 4.123-4.954 4.962a90508 90508 0 0 1-27.694 27.731 44116 44116 0 0 0-16.746 16.769q-7.323 7.339-14.652 14.671a11305 11305 0 0 0-7.737 7.748 7833 7833 0 0 1-8.643 8.652l-2.553 2.563A257 257 0 0 1 214 543l-2.875 2.5c-5.062 2.43-10.229 1.356-15.526-.209a125 125 0 0 1-6.974-2.853l-2.505-1.089C168.356 533.401 152.796 520.194 142 504c-.751-3.464-.759-6.536 0-10 1.649-2.301 3.409-3.995 5.566-5.82 2.011-1.801 3.633-3.538 5.365-5.587 4.935-5.677 10.28-10.944 15.6-16.254q1.732-1.733 3.462-3.467 4.67-4.676 9.347-9.346 4.906-4.904 9.809-9.811 8.23-8.232 16.465-16.459 9.507-9.5 19.006-19.008 8.174-8.18 16.354-16.357 4.878-4.875 9.752-9.754 4.581-4.584 9.168-9.162l3.355-3.356q2.295-2.299 4.597-4.592l2.592-2.591c2.759-2.623 5.627-5.013 8.562-7.436 2.26-2.208 4.475-4.435 6.625-6.75 3.267-2.97 6.428-2.374 10.375-1.25"/><path fill="#F84560" d="M666.508 608.684c5.002 1.885 6.66 4.92 9.367 9.379l1.564 2.474a486 486 0 0 1 4.56 7.463l1.26 2.048C698.813 655.44 707.846 683.833 713 713l.404 2.226c3.984 23.07 5.177 50.719-8.403 70.774-8.867 11.887-20.473 18.635-34.988 21.614-14.778 1.897-29.165-.026-41.582-8.703-10.166-7.993-17.712-18.24-19.806-31.248a210 210 0 0 1-.624-7.35q-.237-2.788-.484-5.574l-.252-2.873C604.567 722.555 596.489 693.734 580 669c-.552-5.3-.552-5.3 1.217-7.545 2.103-1.716 4.127-2.665 6.623-3.732l2.94-1.287 3.158-1.373c23.09-10.334 46.566-24.411 64.51-42.524 2.718-2.606 4.278-3.514 8.06-3.855"/><path fill="#1B95F3" d="M67.883 608.36c4.113.844 6.174 2.974 8.992 5.89 11.715 11.405 24.975 20.274 39.04 28.524 1.888 1.11 3.76 2.238 5.632 3.374 7.71 4.58 15.622 8.304 23.878 11.795l2.497 1.076 2.237.941c1.84 1.04 1.84 1.04 3.84 4.04.717 4.711-1.132 7.42-3.561 11.375-13.983 23.572-21.575 49.154-23.438 76.437-1.152 16.676-4.171 31.64-16.926 43.563C96.94 805.665 82.526 809.42 66 808c-15.691-2.616-28.651-9.735-37.97-22.75-6.088-9.703-9.593-20.78-10.03-32.25l-.121-2.922c-.543-27.232 4.904-54.549 14.12-80.078l.919-2.553C39.877 648.42 49.123 630.43 61 614l1.91-2.907C65 609 65 609 67.883 608.36"/><path fill="#6D58E4" d="m212.941 313.137 1.621 1.55 2 1.89L219 319l3.375 3.297c5.462 5.373 10.835 10.762 15.765 16.633 1.586 1.766 3.21 3.42 4.906 5.078l1.658 1.62a379 379 0 0 0 3.298 3.162c4.681 4.543 4.681 4.543 4.998 8.21-1.017 1.712-1.017 1.712-2.697 3.488l-1.978 2.118L246 365l-2.607 2.725c-6.528 6.79-13.177 13.463-19.809 20.15a1419 1419 0 0 0-7.299 7.423 1276 1276 0 0 1-8.875 8.995 472 472 0 0 0-3.36 3.427 383 383 0 0 1-4.707 4.747l-2.695 2.733C194 417 194 417 190.783 416.873c-2.823-.885-4.07-1.493-5.783-3.873v-2h-2v-2h-2c-1.428-1.451-1.428-1.451-3.094-3.468-3.906-4.594-8.107-8.81-12.406-13.032-4.824-4.737-9.466-9.53-13.875-14.656-3.217-3.65-6.772-6.951-10.27-10.328-3.246-3.467-4.204-5.521-4.918-10.203.203-5.81 3.773-9.221 7.563-13.313l2.61-2.886c13.474-14.447 30.314-23.895 49.452-28.614l2.091-.523c5.132-1.14 10.107-1.581 14.788 1.16"/><path fill="#F84661" d="M544 454c2.12 1.505 2.12 1.505 4.24 3.64l2.425 2.407 2.573 2.633 2.669 2.676q2.79 2.802 5.56 5.624c2.37 2.415 4.755 4.815 7.146 7.21 2.277 2.282 4.545 4.573 6.813 6.865l2.604 2.62 2.377 2.426 2.108 2.14C584 494 584 494 584 496l3 1c2.554 3.495 2.628 6.811 2 11-1.948 3.044-4.455 5.451-7 8l-2.246 2.531C565.517 533.99 543.886 545.812 523 549c-4.948.165-7.156-.912-10.715-4.117l-2.131-1.913L508 541l-1.97-1.802c-4.056-3.743-8.062-7.539-12.063-11.34a587 587 0 0 0-5.483-5.1q-1.524-1.44-3.046-2.883l-2.692-2.508C481 515 481 515 481.133 512.34c.951-2.566 2.008-4.333 3.867-6.34h2l.779-1.802c1.334-2.401 2.638-3.629 4.755-5.361 4.908-4.158 9.403-8.666 13.927-13.235l2.642-2.654q4.845-4.869 9.683-9.745 4.772-4.804 9.55-9.601l2.544-2.57 2.348-2.358 2.067-2.082c2.848-2.659 4.866-3.014 8.705-2.592"/><path fill="#FA627A" d="M664 262c11.864 8.964 20.117 22.58 28 35l1.863 2.91c19.273 31.501 30.14 71.717 30.34 108.629l.021 2.653q.025 4.216.026 8.433l.002 2.914C724.221 450.65 720.162 477.37 711 504l-.643 1.893C701.939 530.44 689.412 552.918 673 573l-1.275 1.583C661.42 587.343 650.012 598.985 637 609l-2.68 2.125C620.596 621.77 605.749 630.703 590 638l-2.523 1.192C539.325 661.614 482.914 664.113 433 646a289 289 0 0 1-11.188-4.688l-2.63-1.153-2.412-1.108-2.138-.979C413 637 413 637 412 634c5.03.986 9.257 2.514 13.875 4.75C454.811 652.434 489.333 657.534 521 653q2.999-.236 6-.438c4.901-.387 9.26-1.298 14-2.562 1.97-.219 3.939-.438 5.91-.645 3.208-.545 6.172-1.679 9.207-2.832C558 646 558 646 560 647l1-2 2 1v-2l2.812-.75c11.157-3.191 21.619-7.824 31.876-13.188l2.548-1.302c4.244-2.218 7.435-4.274 10.764-7.76 3.75-.75 3.75-.75 7-1l1-3q2.478-1.054 5-2l1-2 6-4 2.25-2.25L635 605h2l1-3h2a138 138 0 0 0 3.512-3.508c1.592-1.596 3.262-3.041 4.988-4.492 5.886-4.995 10.797-10.56 15.562-16.625C666 575 666 575 667.832 573.227c2.518-2.586 4.633-5.337 6.793-8.227l2.352-3.125c1.595-2.266 2.897-4.357 4.023-6.875h2l.738-2.035c1.546-3.632 3.479-6.991 5.45-10.403 11.639-20.483 11.639-20.483 14.304-30.671C704 510 704 510 705 508h2v-5h2v-7h2l.332-2.492c1.148-8.084 2.588-15.827 5.918-23.32.75-2.188.75-2.188.25-4.563-.684-3.593.493-6.13 1.5-9.625q.101-2.061.062-4.125C719 448 719 448 719.5 445.625c.796-4.18.574-8.382.5-12.625h1v-25h-1l.035-2.922.027-3.828.036-3.797c-.079-2.79-.347-4.818-1.098-7.453q-.253-2.309-.438-4.625c-1.221-12.876-4.379-26.108-8.574-38.32l-1.113-3.243-1.07-3.042C707 338 707 338 707 334h-2l-.875-3.312C703 327 703 327 701 324c-.125-2.688-.125-2.688 0-5l-2-1c-.625-2.563-.625-2.563-1-5h-2l-2-8h-2c-1.078-1.446-1.078-1.446-2.25-3.48l-1.329-2.261-1.421-2.447c-16.376-27.5-16.376-27.5-25-31.812 1-2 1-2 2-3"/><path fill="#4ECDBF" d="m550 199 2.742.57C593.611 208.188 629.64 228.669 660 257c-1.711.742-1.711.742-4 1-2.289-1.617-2.289-1.617-4.625-3.875-4.272-4.074-4.272-4.074-6.375-5.125v-2l-1.938-.812C641 245 641 245 640 242l-9-1-1-4c-1.651-1.46-1.651-1.46-3.797-2.805l-2.389-1.51-2.564-1.56-2.594-1.606C601.406 219 601.406 219 596 219v-2l-2.449-.551-3.239-.761-3.199-.739C584 214 584 214 581.738 212.578c-4.053-2.336-8.358-3.331-12.863-4.516l-2.93-.783c-28.512-7.504-28.512-7.504-40.383-7.341l-2.621.027L521 200v-2l-2.113.5c-3.097.536-5.935.562-9.075.5-5.591-.11-5.591-.11-7.812 1-2.813.375-5.616.706-8.438 1l-2.461.268c-4.447.477-8.892.887-13.351 1.232-4.728.413-8.739 1.408-12.938 3.688C463 207 463 207 460 206c-2.242.855-2.242.855-4.875 2.188-4.142 1.991-8.133 3.466-12.563 4.687-7.416 2.165-15.031 5.594-20.562 11.125v-2c-7.867 4.748-15.56 9.599-23 15l-1.594 1.131a599 599 0 0 0-5.031 3.619l-3.102 2.234L387 246c0 3 0 3 1.375 4.688C390 252 390 252 392 252l.688 2.25c1.579 3.309 3.417 4.545 6.312 6.75l2.125 2.688C403 266 403 266 406 267a113 113 0 0 1 4.312 5.312c3.353 4.218 6.137 6.936 10.688 9.688a150 150 0 0 1 4 5l3 2v2h2v2h2c3.686 3.387 6.808 7.154 10 11 3.11 3.712 5.168 4.561 10 5v-2h3v-2a896 896 0 0 1 6.25-3l3.516-1.688C468 299 468 299 472 299v-2l2-.519q4.532-1.177 9.062-2.356l3.147-.816 3.076-.801 3.023-.781a118 118 0 0 0 6.262-1.907c4.774-1.141 9.352-1.11 14.242-1.07l2.831-.023c6.351.017 12.182.828 18.357 2.273l3.566.746 2.996.692 3.067.683L546 294l1 3-3.785-.875C512.032 289.312 483.921 293.638 456 309l-2.184 1.711C452 312 452 312 448.5 312c-4.281-1.223-4.943-2.435-7.5-6a112 112 0 0 0-3.598-3.148c-5.301-4.567-10.147-9.547-15.047-14.536-3.312-3.349-6.635-6.612-10.214-9.675-5.752-4.948-10.984-10.428-16.307-15.827a2709 2709 0 0 0-4.131-4.173l-2.448-2.484C387 254 387 254 384.741 252.391 383 251 383 251 382.445 248.102c1.111-6.209 7.687-9.568 12.555-13.102l1.964-1.432C420.286 216.821 445.999 205.202 474 199l2.199-.5c23.274-5.051 50.596-4.649 73.801.5"/><path fill="#39A7F6" d="M373 268c3.957 1.674 6.845 4.131 10 7v2l1.733.743c2.654 1.472 4.412 3.193 6.533 5.362l2.449 2.483 2.535 2.6a2619 2619 0 0 0 4.953 5.042l2.208 2.263a141 141 0 0 0 6.184 5.622c8.903 7.73 17.144 16.239 25.516 24.536q3.397 3.363 6.821 6.698 4.16 4.055 8.275 8.155a366 366 0 0 0 3.148 3.08 330 330 0 0 1 4.366 4.326l2.511 2.473c2.376 3.516 2.443 5.45 1.768 9.617-1.585 2.245-2.939 3.832-4.894 5.688l-1.576 1.58a489 489 0 0 1-5.202 5.087q-1.804 1.785-3.603 3.574c-3.16 3.133-6.34 6.244-9.524 9.351-3.231 3.159-6.442 6.338-9.654 9.515a4113 4113 0 0 1-15.622 15.358c-2.066 2.021-4.101 4.039-6.056 6.168C404 418 404 418 400.684 418.164c-4.874-1.54-7.234-4.078-10.622-7.789a3206.087 3206.087 0 0 0-5.237-5.536c-1.832-1.846-3.731-3.545-5.704-5.237-5.439-4.672-10.386-9.821-15.41-14.93-4.146-4.189-8.37-8.182-12.84-12.024-2.929-2.58-5.644-5.357-8.371-8.148-4.092-4.144-8.234-8.123-12.676-11.895-2.032-1.788-3.925-3.676-5.824-5.605-3.143-3.186-6.4-6.158-9.789-9.078-2.664-2.316-5.283-4.677-7.899-7.047l-2.699-2.445c-2.601-2.419-5.118-4.903-7.613-7.43 4.832 0 5.364.832 8.75 4.062l2.684 2.516L310 330a413 413 0 0 0 3.812 3.312c7.851 6.846 15.546 13.904 22.821 21.36C338 356 338 356 340.438 357.812L342 359v2l1.784.801c2.297 1.243 3.824 2.549 5.669 4.387l1.875 1.867L353.25 370l1.969 1.945 1.859 1.867 1.7 1.708C360 377 360 377 360 379l1.688.188c3.321 1.167 4.912 3.244 7.312 5.812a770 770 0 0 0 3.5 3.5l1.793 1.801a317 317 0 0 0 4.519 4.387c1.96 2.07 3.122 3.696 4.188 6.312h3c2.94 2.59 4.751 4.254 6 8l2 1 2 1 1 3c6.842 0 6.842 0 9.773-2.531a147 147 0 0 0 3.372-4.145c2.012-2.521 4.185-4.746 6.48-7.012l2.305-2.281q2.408-2.361 4.82-4.719C426 391 426 391 428.312 388.125c2.523-3.086 5.418-5.557 8.442-8.141a159.5 159.5 0 0 0 16.996-17.511c1.643-1.936 3.421-3.714 5.25-5.473-2-3-2-3-4-4l-1.312-2.375C452 348 452 348 449.375 346.5L447 345c-.364-1.66-.7-3.327-1-5-1.812-1.062-1.812-1.062-4-2-2.25-2-2.25-2-4-4v-2l-3-1v-2h-2c-1.625-1.375-1.625-1.375-3-3v-2l-1.625-.688c-4.558-2.518-8.613-5.862-11.375-10.312v-2l-3-1a182 182 0 0 1-4-4l-3-2-1.375-2.438c-1.886-2.973-3.589-3.859-6.625-5.562-2.312-2.062-2.312-2.062-4-4v-2l-4-2v-3l-2.188-.688c-3.439-1.605-5.214-3.533-7.812-6.312a3147 3147 0 0 0-6.426-6.23C373 270 373 270 373 268"/><path fill="#FA7D8E" d="M635 402h1c2.923 14.015 2.178 27.811 1 42l-.219 2.73c-.409 4.367-1.346 8.143-2.781 12.27l-.375 3.25c-.672 4.032-1.948 7.283-3.535 11.027-1.118 2.792-1.977 5.594-2.84 8.473-2.414 7.346-6.224 13.707-10.25 20.25l-1.1 1.823c-4.437 7.339-9.057 13.895-15.052 20.091C599 526 599 526 597.906 528.211 597 530 597 530 594.438 531L592 532l-.355 1.809c-.933 3.171-2.803 4.263-5.395 6.253l-2.609 2.036C581 544 581 544 578.297 545.621 576 547 576 547 574 549a147 147 0 0 1-4.5 2.75 527 527 0 0 0-8.137 4.871c-6.972 4.282-13.44 7.193-21.363 9.379q-2.189.777-4.375 1.562c-3.864 1.315-7.52 1.916-11.582 2.227-2.043.211-2.043.211-3.867.672-6.434 1.594-12.783 1.693-19.364 1.664l-2.693.012-2.599-.004-2.341-.004c-2.182-.129-4.066-.598-6.179-1.129l-3.562.062C480 571 480 571 477 569a144 144 0 0 0-6.875-1.5c-4.274-.835-8.13-1.77-12.125-3.5l-2.465-.93c-4.97-1.9-9.162-3.989-13.535-7.07-3.837-2.148-5.54-3-10-3-1.668-1.461-1.668-1.461-3.188-3.375l-1.542-1.898C426 546 426 546 425 544l-1 2-2-1c-.625-3.062-.625-3.062-1-6l1.512 1.031A679 679 0 0 0 430 545l2.859 1.898c28.149 18.075 60.946 25.054 93.829 18.352 33.324-7.329 63.037-26.964 81.992-55.465 18.841-30.177 25.698-61.746 25.284-97.056l-.026-2.897-.036-2.602C634 405 634 405 635 402"/><path fill="#F85B72" d="M664 262c11.864 8.964 20.117 22.58 28 35l1.863 2.91c19.273 31.501 30.14 71.717 30.34 108.629l.021 2.653q.025 4.216.026 8.433l.002 2.914C724.209 461.261 715.847 498.111 699 533h-1v-5h2l-.75-1.938c-.325-3.986.979-6.292 2.691-9.835 1.271-2.672 2.19-5.402 3.059-8.227h2v-5h2v-7h2l.332-2.492c1.148-8.084 2.588-15.827 5.918-23.32.75-2.188.75-2.188.25-4.563-.684-3.593.493-6.13 1.5-9.625q.101-2.061.062-4.125C719 448 719 448 719.5 445.625c.796-4.18.574-8.382.5-12.625h1v-25h-1l.035-2.922.027-3.828.036-3.797c-.079-2.79-.347-4.818-1.098-7.453q-.253-2.309-.438-4.625c-1.221-12.876-4.379-26.108-8.574-38.32l-1.113-3.243-1.07-3.042C707 338 707 338 707 334h-2l-.875-3.312C703 327 703 327 701 324c-.125-2.688-.125-2.688 0-5l-2-1c-.625-2.562-.625-2.562-1-5h-2l-2-8h-2c-1.078-1.446-1.078-1.446-2.25-3.48l-1.329-2.261-1.421-2.447c-16.376-27.5-16.376-27.5-25-31.812 1-2 1-2 2-3"/><path fill="#30C3D6" d="m439 210 2 1-2.438.812L436 213l-1 3c-2.434 1.535-2.434 1.535-5.438 3.062-5.383 2.759-5.383 2.759-7.562 4.938v-2c-7.867 4.748-15.56 9.599-23 15l-1.594 1.131a599 599 0 0 0-5.031 3.619l-3.102 2.234L387 246c0 3 0 3 1.375 4.688C390 252 390 252 392 252l.688 2.25c1.579 3.309 3.417 4.545 6.312 6.75l2.125 2.688C403 266 403 266 406 267a113 113 0 0 1 4.312 5.312c3.353 4.218 6.137 6.936 10.688 9.688a150 150 0 0 1 4 5l3 2v2h2v2h2c3.686 3.387 6.808 7.154 10 11 3.11 3.712 5.168 4.561 10 5v-2h3v-2a896 896 0 0 1 6.25-3l3.516-1.688C468 299 468 299 472 299v-2l2-.519q4.532-1.177 9.062-2.356l3.147-.816 3.076-.801 3.023-.781a118 118 0 0 0 6.262-1.907c4.774-1.141 9.352-1.11 14.242-1.07l2.831-.023c6.351.017 12.182.828 18.357 2.273l3.566.746 2.996.692 3.067.683L546 294l1 3-3.785-.875C512.032 289.312 483.921 293.638 456 309l-2.184 1.711C452 312 452 312 448.5 312c-4.281-1.223-4.943-2.435-7.5-6a112 112 0 0 0-3.598-3.148c-5.301-4.567-10.147-9.547-15.047-14.536-3.312-3.349-6.635-6.612-10.214-9.675-5.752-4.948-10.984-10.428-16.307-15.827a2709 2709 0 0 0-4.131-4.173l-2.448-2.484C387 254 387 254 384.741 252.391 383 251 383 251 382.445 248.102c1.111-6.209 7.687-9.568 12.555-13.102l1.964-1.432C409.67 224.445 424.093 214.969 439 210"/><path fill="#4BAEF5" d="m132 522 2 2 1.406 1.395a169 169 0 0 1 3.25 3.367c20.239 21.139 50.077 36.806 79.591 38.415 19.944.367 37.915-.402 56.506-8.246 3.911-1.624 7.016-2.439 11.247-1.931 1.809 1.004 1.809 1.004 3.438 2.562l2.027 1.911c8.13 8.105 8.13 8.105 12.031 12.041 3.767 3.792 7.589 7.425 11.672 10.877 3.799 3.337 7.289 7.005 10.832 10.609q1.53 1.533 3.062 3.062L331 600c-4.953-.45-8.373-2.755-12-6a389 389 0 0 1-3-5 187 187 0 0 0-6-4c-2.875-2.625-2.875-2.625-5-5v-2h-2c-1.252-1.477-2.502-2.958-3.684-4.492C298 572 298 572 295 570v-2h-3l-.75-1.812c-1.803-3.156-3.954-4.621-7.25-6.063-2.844-.178-3.729 1.156-6 2.875-8.664 3.436-17.891 5.147-27 7l-3.422.699c-14.303 2.559-29.626 2.36-43.578-1.699l-3.938-.375c-3.879-.406-6.742-1.762-10.105-3.687C188 564 188 564 185.648 563.566c-3.286-.703-5.864-2.067-8.836-3.628C171.207 557 171.207 557 169 557l-1-2-3-1v-2l-2.164-.766c-7.703-3.352-14.721-9.527-20.836-15.234v-2l-1.75-.875L134 530v-4h-2z"/><path fill="#41A7F5" d="M330.407 453.437c3.756.816 5.771 3.12 8.331 5.813l1.593 1.614c1.673 1.7 3.327 3.418 4.982 5.136q1.698 1.737 3.4 3.469c2.776 2.83 5.535 5.677 8.287 8.53l-3 1-1-3-2.5-.936L348 474l-1-4c-.804-.31-1.609-.62-2.437-.937C342 468 342 468 340.938 465.5L340 463c-2.125-1.312-2.125-1.312-4-2v-2c-.598-.144-1.196-.29-1.812-.437-1.749-.45-3.475-.992-5.188-1.563l-1 3c-3.444 3-3.444 3-6 3v2c-1.769 1.7-3.664 3.208-5.566 4.758-2.079 1.915-3.864 3.837-5.704 5.973-3.756 4.359-7.762 8.414-11.855 12.457l-2.09 2.076q-2.002 1.989-4.008 3.974a734 734 0 0 0-4.406 4.415 184 184 0 0 1-5.266 4.996l-2.917 2.726-1.522 1.344c-2.913 2.775-3.647 4.058-3.99 8.133L275 519h2a135 135 0 0 1 3.512 3.512c1.586 1.587 3.258 2.997 4.988 4.426 2.287 1.925 4.256 3.854 6.125 6.187C294 536 294 536 296.375 537.875c2.36 1.91 4.062 3.749 6 6.063 2.214 2.602 4.277 4.678 7.125 6.562 3.604 2.384 6.112 5.355 8.875 8.649 1.993 2.27 4.228 4.022 6.625 5.85 2.364 2.3 4.665 4.654 6.953 7.029l2.11 2.16 1.972 2.043c1.923 1.73 3.663 2.64 5.965 3.769l2 2.563c2.066 2.518 2.845 3.099 6 3.437v2c-2.262.719-2.262.719-5 1-1.957-1.406-1.957-1.406-3.812-3.5-2.646-2.86-5.282-5.537-8.25-8.062a120 120 0 0 1-7.438-6.938 115 115 0 0 0-7.312-6.812c-4.048-3.484-7.776-7.238-11.5-11.063a127 127 0 0 0-6.157-5.621c-5.625-4.883-10.941-10.081-16.243-15.311q-1.8-1.767-3.619-3.516a544 544 0 0 1-5.263-5.15l-1.647-1.562c-2.365-2.38-3.68-4.14-4.48-7.42 1.058-4.467 3.595-6.687 6.854-9.8.629-.622 1.259-1.245 1.907-1.888a828 828 0 0 1 6.085-5.92 2528 2528 0 0 0 4.039-3.982C293.624 487.087 299.08 481.86 305 477c2.391-2.306 4.696-4.683 6.996-7.08a1707 1707 0 0 1 7.004-7.232l2.406-2.533 2.344-2.393 2.109-2.19C328 454 328 454 330.407 453.438"/><path fill="#9761E2" d="M289 208c-3.225 2.15-4.168 2.193-7.844 1.555-3.603-.927-7.032-2.318-10.508-3.637-3.198-1.109-6.285-1.582-9.648-1.918l-2.345-.475c-2.747-.543-5.473-.911-8.253-1.244l-3.177-.386-6.586-.79-3.174-.386-2.887-.346C232 200 232 200 229.913 199.463c-2.058-.498-3.872-.592-5.987-.596l-2.272-.004-2.342.012-2.376-.012c-5.809.01-5.809.01-6.936 1.137-1.743.287-3.495.516-5.25.719l-3.285.386-3.465.395-3.371.395c-8.961 1.044-8.961 1.044-12.344 1.351-3.814.352-6.039.59-9.285 2.754-1.592.423-3.2.79-4.812 1.125-6.263 1.499-12.259 3.561-18.313 5.75l-2.781.993a119 119 0 0 0-15.886 7.153c-3.257 1.444-5.702 1.36-9.208.979 2.286-2.563 4.453-3.854 7.586-5.234l2.786-1.23 3.003-1.286 3.126-1.339C185.122 193.259 241.394 187.639 289 208"/><path fill="#F97489" d="M635 402h1c2.923 14.015 2.178 27.811 1 42l-.219 2.73c-.409 4.367-1.346 8.143-2.781 12.27l-.375 3.25c-.672 4.032-1.948 7.283-3.535 11.027-1.118 2.792-1.977 5.594-2.84 8.473-2.414 7.346-6.224 13.707-10.25 20.25l-1.1 1.823c-4.437 7.339-9.057 13.895-15.052 20.091C599 526 599 526 597.906 528.211 597 530 597 530 594.438 531L592 532l-.355 1.809c-.933 3.171-2.803 4.263-5.395 6.253l-2.609 2.036C581 544 581 544 578.297 545.621 576 547 576 547 574 549c-7.947 5.789-7.947 5.789-13 5 2.557-2.89 5.481-4.527 8.812-6.438C599.896 529.585 620.391 497.492 629 464c3.971-17.073 5.169-33.781 4.964-51.271l-.026-2.897-.036-2.602C634 405 634 405 635 402"/><path fill="#49ACF6" d="M297 320c3.955 1.666 6.983 4.342 10.188 7.125l1.827 1.575c6.515 5.673 12.769 11.618 19.028 17.57 4.028 3.821 8.161 7.503 12.367 11.128C342 359 342 359 342 361l1.784.801c2.297 1.243 3.824 2.549 5.669 4.387l1.875 1.867L353.25 370l1.969 1.945 1.859 1.867 1.7 1.708C360 377 360 377 360 379l1.688.188c3.321 1.167 4.912 3.244 7.312 5.812a770 770 0 0 0 3.5 3.5l1.793 1.801a317 317 0 0 0 4.519 4.387c1.96 2.07 3.122 3.696 4.188 6.312h3c2.94 2.59 4.751 4.254 6 8l1.938.938C396 411 396 411 396.812 413.062L398 415c3.625.75 3.625.75 7 1l-1 2c-5.776-.162-8.231-1.587-12.201-5.723l-1.737-1.902a3206.087 3206.087 0 0 0-5.237-5.536c-1.832-1.846-3.731-3.545-5.704-5.237-5.439-4.672-10.386-9.821-15.41-14.93-4.146-4.189-8.37-8.182-12.84-12.024-2.929-2.58-5.644-5.357-8.371-8.148-4.092-4.144-8.234-8.123-12.676-11.895-2.032-1.788-3.925-3.676-5.824-5.605-3.143-3.186-6.4-6.158-9.789-9.078-2.664-2.316-5.283-4.677-7.899-7.047l-2.699-2.445c-2.601-2.419-5.118-4.903-7.613-7.43z"/><path fill="#40A4F4" d="m54 561 1.598 2.031c2.875 3.554 5.847 7.014 8.84 10.469l1.697 1.973c2.501 2.888 4.992 5.689 7.775 8.308C76 586 76 586 76 589l5 2v2l1.625.625c2.822 1.634 4.712 3.651 6.91 6.035C91 601 91 601 94 602a406 406 0 0 1 5 5 221 221 0 0 0 6.312 5l1.72 1.32c3.168 2.406 6.366 4.631 9.78 6.68l3.188 2v2l1.688.352c2.627.736 4.875 1.797 7.312 3.023l2.562 1.273c2.342 1.299 4.414 2.6 6.438 4.352v2l2.438.375L143 636l1 2c-5.678-1.38-10.365-3.565-15.438-6.438l-2.365-1.329C113.981 623.249 102.688 615.146 92 606l-3.539-2.98C76.286 592.732 76.286 592.732 71 587l-1.547-1.672C63.318 578.492 57.705 571.194 52 564z"/><path fill="#986DE3" d="M192 295c-2.992 1.621-6.074 2.772-9.279 3.902C164.702 305.309 149.955 314.889 136 328l-1.793 1.562C119.107 343.335 110.151 363.965 104 383h-1c-1.458-8.061-1.458-8.061.188-11.438L105 369c1.429-3.296 2.717-6.645 4-10h2l.688-2.438c1.648-4.475 3.917-8.449 6.312-12.562h2c1.206-2.332 2.165-4.496 3-7a281 281 0 0 1 5-5l2.188-2.812L132 327h2v-3c4.222-3 4.222-3 7-3l2-4h2v-2l4-1v-2l5-1v-2h3l1-3h4l1-2c2.231-2.656 3.711-3.179 7-4 2.01-.808 4.01-1.644 6-2.5 6.04-2.597 9.477-3.834 16-2.5"/><path fill="#41A7F6" d="m132 522 2 2 1.406 1.395a169 169 0 0 1 3.25 3.367c18.335 19.15 41.86 30.769 67.406 36.738 1.938.5 1.938.5 4.711 1.562 5.108 1.485 10.313 1.683 15.602 2.063l3.387.262q4.118.316 8.238.613v2c-22.922.223-22.922.223-34-3l-3.938-.375c-3.879-.406-6.742-1.762-10.105-3.687C188 564 188 564 185.648 563.566c-3.286-.703-5.864-2.067-8.836-3.628C171.207 557 171.207 557 169 557l-1-2-3-1v-2l-2.164-.766c-7.703-3.352-14.721-9.527-20.836-15.234v-2l-1.75-.875L134 530v-4h-2z"/><path fill="#47A9F3" d="m146 636 6 2v2l8 1v2l2.184-.121c3.071.132 5.071.839 7.878 2.059 14.777 6.352 32.066 7.697 47.938 9.062v1q6.782.042 13.562.062l3.87.026 3.759.01 3.444.016c3.517-.119 6.893-.556 10.365-1.114v-1c5.911-.773 11.131-1.148 17 0v1c-42.929 7.739-86.161 3.574-126-15l2-1z"/><path fill="#9258E2" d="m120 222 2 1c-1.22 3.661-2.126 3.923-5.438 5.688l-2.433 1.324C112 231 112 231 110 231v2l-1.582.777C101.833 237.202 92.411 242.178 89 249l-2.274 1.351c-2.887 1.746-4.967 3.647-7.343 6.036l-2.59 2.595-2.668 2.706-2.645 2.646c-4.533 4.564-8.886 9.162-12.914 14.181-1.815 1.721-3.124 2.098-5.566 2.485 11.235-24.671 43.525-46.921 67-59"/><path fill="#F85E75" d="M412 634c5.03.986 9.257 2.514 13.875 4.75 17.232 8.149 35.892 12.881 54.85 14.567 3.595.328 6.957.823 10.455 1.73 6.077 1.424 12.175 1.167 18.382 1.078l3.635-.027q4.402-.036 8.803-.098v1c-34.211 3.281-68.681-1.769-100.188-15.688l-2.63-1.153-2.412-1.108-2.138-.979C413 637 413 637 412 634"/><path fill="#34A3F6" d="m459 353 2 1c.405 4.209.475 6.328-2.005 9.84l-2.844 2.788-1.562 1.56c-1.7 1.69-3.423 3.354-5.148 5.019a1968 1968 0 0 0-3.557 3.52 1631 1631 0 0 1-9.394 9.206c-3.82 3.725-7.616 7.474-11.415 11.22a2355 2355 0 0 1-8.881 8.719l-1.648 1.614q-2.206 2.155-4.414 4.309C408 414 408 414 407 416h-9l-1-2h3.562c4.874-.616 6.65-2.938 9.583-6.676 2.012-2.521 4.185-4.746 6.48-7.012l2.305-2.281q2.408-2.361 4.82-4.719C426 391 426 391 428.312 388.125c2.523-3.086 5.418-5.557 8.442-8.141 6.105-5.393 11.815-11.242 16.996-17.527C455 361 455 361 457.375 358.812 459 357 459 357 459 353"/><path fill="#9866E4" d="m52 281 2 3-2.055 3.051C44.877 297.683 38.751 308.609 33 320l-1.115 2.151c-1.875 3.649-3.444 7.118-4.51 11.099-.852 3.148-1.899 5.847-3.375 8.75a87 87 0 0 0-1 5l-2-1v6h-3c2.491-23.084 17.667-54.667 34-71"/><path fill="#EF6B84" d="M664 262c11.861 8.962 20.125 22.579 28 35l1.898 2.98c3.664 6.01 6.703 12.24 9.602 18.645l1.1 2.409c.865 1.962 1.64 3.962 2.4 5.966l-1 2-1-3h-3l-.375-3.438L701 319l-2-1c-.625-2.562-.625-2.562-1-5h-2l-2-8h-2c-1.078-1.446-1.078-1.446-2.25-3.48l-1.329-2.261-1.421-2.447c-16.376-27.5-16.376-27.5-25-31.812 1-2 1-2 2-3"/><path fill="#A275E6" d="M204 196c29.089-.652 57.759.349 85 12-3.225 2.15-4.168 2.193-7.844 1.555-3.603-.927-7.032-2.318-10.508-3.637-3.198-1.109-6.285-1.582-9.648-1.918l-2.337-.472c-2.795-.554-5.573-.934-8.401-1.282l-3.233-.4-3.341-.408-3.401-.42q-4.143-.511-8.287-1.018l-1-3h-27z"/><path fill="#7BB6B5" d="M592 213c5.876.95 10.588 3.631 15.812 6.375l3.112 1.633A191 191 0 0 1 636 237l1.87 1.403A279 279 0 0 1 660 257c-1.711.742-1.711.742-4 1-2.289-1.617-2.289-1.617-4.625-3.875-4.272-4.074-4.272-4.074-6.375-5.125v-2l-1.938-.812C641 245 641 245 640 242l-9-1-1-4c-1.683-1.476-1.683-1.476-3.867-2.84l-2.421-1.526-2.587-1.572-2.605-1.614c-5.984-3.655-11.967-6.915-18.52-9.448v-3l-2.875-.875C594 215 594 215 592 213"/><path fill="#FA6A80" d="M720 460h1c-.649 25.182-11.343 50.604-22 73h-1v-5h2l-.75-1.938c-.325-3.986.979-6.292 2.691-9.835 1.271-2.672 2.19-5.402 3.059-8.227h2v-5h2v-7h2l.332-2.492c.897-6.313 2.01-12.32 3.984-18.387.653-2.026 1.191-4.051 1.684-6.121h2z"/><path fill="#4ED7CB" d="m439 210 2 1-2.438.812L436 213l-1 3c-2.434 1.535-2.434 1.535-5.438 3.062-5.383 2.759-5.383 2.759-7.562 4.938v-2c-11.307 6.823-22.02 14.188-32.531 22.18C387 246 387 246 385 247c-1.125 2.062-1.125 2.062-2 4-.305-2.711-.305-2.711 0-6 3.367-3.974 7.794-6.947 12-10l1.964-1.432C409.67 224.445 424.093 214.969 439 210"/><path fill="#F5647C" d="M603 334h3v2l1.75.562c2.758 1.763 3.756 3.873 5.254 6.723.996 1.715.996 1.715 2.934 3.527 3.29 3.49 7.062 9.258 7.062 14.188h2l.875 2.312C627 366 627 366 629 369l.438 3.125c.553 3.812 1.541 7.059 2.8 10.676 1.714 4.946 3.287 9.972 3.762 15.199l-2 3c-2.263-2.263-2.442-3.203-3.078-6.262l-.57-2.618-.602-2.808c-4.283-18.812-12.031-35.851-23.965-51.019C604 336 604 336 603 334"/><path fill="#E97996" d="m421 539 1.512 1.031A679 679 0 0 0 430 545l2.859 1.898C449.36 557.494 467.491 564.545 487 567v1c-10.03 1.918-19.664-.049-29-4l-2.465-.93c-4.97-1.9-9.162-3.989-13.535-7.07-3.837-2.148-5.54-3-10-3-1.668-1.461-1.668-1.461-3.188-3.375l-1.542-1.898C426 546 426 546 425 544l-1 2-2-1c-.625-3.062-.625-3.062-1-6"/><path fill="#FA647D" d="M704 326c4.263 2.183 5.154 5.377 6.587 9.663l.851 2.712.909 2.823c4.088 12.987 7.149 26.202 9.465 39.614l.376 2.154c.762 4.727.914 9.246.812 14.034h-1l-.586-3.324-.789-4.364-.383-2.185c-.723-3.959-1.744-7.384-3.242-11.127a236 236 0 0 1-1.438-7.812c-.999-5.704-2.379-10.83-4.562-16.188l-1-6a126 126 0 0 0-2.379-6.07C707 338 707 338 707 334h-2l-2-7z"/><path fill="#64D1D0" d="m512.813 288.75 2.83-.023c6.351.017 12.183.828 18.357 2.273l3.567.746 2.995.692 3.067.683L546 294l1 3-3.785-.875c-24.022-5.248-48.094-4.968-70.88 5.02l-2.334.855-2-1v-2h4v-2l2-.519q4.53-1.177 9.062-2.356l3.146-.816 3.077-.801 3.022-.781c2.106-.569 4.19-1.222 6.262-1.907 4.774-1.141 9.353-1.11 14.243-1.07"/><path fill="#8A8EC2" d="M357 479c4.82 4.014 9.344 8.218 13.746 12.684l1.863 1.874q3.896 3.923 7.782 7.853c13.011 13.136 13.011 13.136 19.041 18.248 2.22 1.899 4.27 3.947 6.318 6.029l2.172 2.199L410 530a3017 3017 0 0 0 4 4c-3.375-.25-3.375-.25-7-1-1.438-2.062-1.438-2.062-2-4-3 0-3 0-6 2v-8c-2.188-2.191-2.188-2.191-5-4.562a128 128 0 0 1-5-4.438v-2l-1.75-.75c-2.594-1.441-4.216-3.092-6.25-5.25l-2.75-2.625C376 501 376 501 376 499l-3-1-5-6-3-1-1-3-2.375-.188C359 487 359 487 357.688 484.625 357 482 357 482 357 479"/><path fill="#0FC8B3" d="M490 199v2l-3.508.367-4.617.508-2.305.238c-5.27.591-10.038 1.512-14.758 4.075C463 207 463 207 460 206c-2.383.891-2.383.891-5.125 2.25-3.565 1.691-7.092 3.305-10.813 4.625l-2.089.742c-2.295.446-3.771.102-5.973-.617l1.812-.812C440 211 440 211 441.355 209.535c3.196-2.983 7.67-3.811 11.77-5.097l2.975-.94c11.238-3.406 22.168-4.615 33.9-4.498"/><path fill="#54A5F5" d="M297 320c3.955 1.666 6.983 4.342 10.188 7.125l1.822 1.571c5.797 5.046 11.392 10.303 16.952 15.607 4.574 4.36 9.25 8.574 14.038 12.697l-3 2c-9.547-8.471-9.547-8.471-13.625-12.625-2.918-2.965-5.981-5.7-9.129-8.418a548 548 0 0 1-7.934-7.082l-2.699-2.445c-2.601-2.419-5.118-4.903-7.613-7.43z"/><path fill="#48A6EE" d="M309 553c4 0 4 0 5.746 1.609l1.692 2.141c2.638 3.201 5.254 5.725 8.562 8.25 2.364 2.3 4.665 4.652 6.953 7.027l2.109 2.161 1.973 2.042c1.923 1.732 3.663 2.641 5.965 3.77l2 2.562c2.066 2.519 2.845 3.1 6 3.438v2c-2.262.719-2.262.719-5 1-1.957-1.406-1.957-1.406-3.812-3.5-2.646-2.86-5.282-5.537-8.25-8.062-3.208-2.758-6.186-5.664-9.149-8.68-1.909-1.876-3.89-3.632-5.914-5.383-3.1-2.684-6.107-5.347-8.875-8.375z"/><path fill="#44A9F3" d="M346 620c-12.791 10.49-28.023 17.224-43 24l-2.656 1.221C298 646 298 646 295 645h2l1-3c4.855-2.477 9.701-3.791 15-5v-2l2.125-.812c4.38-1.81 8.496-3.953 12.563-6.376C331 626 331 626 334 626l1-3c3.713-2.864 6.366-3.323 11-3"/><path fill="#FA697F" d="M550 648a67 67 0 0 1 4.562.438l2.504.308L559 649c-13.728 7.405-31.96 7.494-47.25 7.875l-2.266.059c-13.306.314-13.306.314-18.484-.934v-1l1.893-.076q4.303-.177 8.607-.362l2.977-.119c5.565-.241 11.004-.7 16.523-1.443q2.999-.236 6-.438c4.901-.387 9.26-1.298 14-2.562q2.214-.314 4.438-.562C549 649 549 649 550 648"/><path fill="#9583B6" d="M349.875 588.125c3.032 1.249 4.303 3.207 6.125 5.875v2l1.75.313c2.57.785 4.187 1.992 6.25 3.687l3-2-1 6 5-2 2 6h2v3l6 1v4c-4.164 0-6.218-2.234-9.313-4.75l-1.851-1.481C352.944 596.165 352.944 596.165 346 589c2-1 2-1 3.875-.875M350 589l1 2Z"/><path fill="#5BD9CB" d="M530 196v1l-2.301.184-3.011.254-2.989.246C519 198 519 198 516 199c-2.02.044-4.042.039-6.062 0-5.716-.111-5.716-.111-7.938 1-1.463.072-2.93.084-4.395.062l-2.646-.023-5.508-.078c-4.318-.038-8.227.041-12.451 1.039a71 71 0 0 1-4.312.062L469 201v-1c20.418-4.35 40.242-4.453 61-4"/><path fill="#9F70E6" d="M192 295c-2.992 1.621-6.074 2.772-9.279 3.902-12.633 4.491-23.981 10.385-34.647 18.532C146 319 146 319 144 320l-1-3h2v-2l4-1v-2l5-1v-2h3l1-3h4l1-2c2.231-2.656 3.711-3.179 7-4 2.01-.808 4.01-1.644 6-2.5 6.04-2.597 9.477-3.834 16-2.5"/><path fill="#499BF5" d="m54 561 1.598 2.031c2.875 3.554 5.847 7.014 8.84 10.469l1.697 1.973c2.501 2.888 4.992 5.689 7.775 8.308C76 586 76 586 76 589l5 2v5c-11.343-9.074-20.226-20.527-29-32z"/><path fill="#67BBF6" d="M270 653v1c-23.323 4.204-45.473 4.581-69 2v-1l17-1v1q6.782.042 13.562.062l3.87.026 3.759.01 3.444.016c3.517-.119 6.893-.556 10.365-1.114v-1c5.93-.97 11.064-.893 17 0"/><path fill="#FA6078" d="m461 384 1 2-1 3h-2v2h-2l-.336 1.816c-1.087 3.576-3.911 5.78-6.539 8.309l-1.645 1.629C442.11 409 442.11 409 438 409l-1 4-5 1c5.527-6.741 11.694-12.807 17.875-18.938l3.242-3.228A5823 5823 0 0 1 461 384"/><path fill="#58CDDF" d="M428 293c4 0 4 0 6.438 2.125 2.589 2.906 5.077 5.88 7.562 8.875 3.11 3.712 5.168 4.561 10 5v-2h3v-2a499 499 0 0 1 5.312-2.562l2.989-1.442C466 300 466 300 469 301c-2.357 2.658-4.736 3.998-7.938 5.5-2.623 1.235-4.88 2.357-7.16 4.156C452 312 452 312 448.5 312c-4.281-1.223-4.943-2.435-7.5-6a136 136 0 0 0-3.938-3.438c-3.453-2.943-6.273-5.989-9.062-9.562"/><path fill="#6D7CEB" d="m208 398 3 2a699 699 0 0 1-8.125 8.562l-2.305 2.483-2.265 2.334-2.063 2.174C194 417 194 417 190.848 416.816c-2.9-.831-4.104-1.394-5.848-3.816v-2h-2v-2l-2-1 3-1q2.007 1.49 4 3h4l2 2 1.312-1.5C197 409 197 409 200 409l.277-1.766c.895-2.766 2.185-3.998 4.285-5.984l1.942-1.859z"/><path fill="#9C68E3" d="m81 249 2 1-2.152 2.047-2.786 2.703-2.777 2.672c-2.253 2.542-2.61 3.44-3.285 6.578-1.602 1.859-1.602 1.859-3.625 3.75-3.528 3.37-6.674 6.887-9.734 10.684-1.861 1.776-3.13 2.178-5.641 2.566 5.73-12.584 18.294-22.511 28-32"/><path fill="#37CDBB" d="M519 197c21.723-.383 21.723-.383 31 2v2l6 1v2c-4.407-.49-8.718-1.108-13.062-2-7.411-1.511-14.384-2.137-21.938-2v-2z"/><path fill="#3DA5F5" d="m338 358 4 1v2l1.784.801c2.297 1.243 3.824 2.549 5.669 4.387l1.875 1.867L353.25 370l1.969 1.945 1.859 1.867 1.7 1.708C360 377 360 377 360 379l1.688.125c3.552 1.344 5.022 3.885 7.312 6.875l-3 1-1.688-1.723c-3.631-3.674-7.254-7.299-11.187-10.652-3.507-3.018-6.834-6.188-10.125-9.437l-1.496-1.457c-1.208-1.205-2.361-2.464-3.504-3.731z"/><path fill="#F8445E" d="M478 568q2.813-.04 5.625-.062l3.164-.036c3.211.098 3.211.098 6.172.594 10.39 1.723 21.6.405 32.039-.496-3.293 2.659-4.763 3.207-9 3l-2.031.484c-4.343.755-8.633.66-13.031.641l-2.721.012-2.627-.004-2.379-.004c-2.197-.128-4.085-.59-6.211-1.129h-3.625C480 571 480 571 478 570z"/><path fill="#DB7C92" d="M664 262c9.491 7.171 16.188 17.373 23 27-1 2-1 2-3 3l-1.25-2.09c-3.549-5.776-7.284-10.925-11.891-15.898a109 109 0 0 1-4.734-5.512C664 266 664 266 662 265c1-2 1-2 2-3"/><path fill="#52D8C8" d="M596 54h1q.074 6.348.11 12.695.014 2.154.041 4.306c.194 16.406.194 16.406-2.151 23.999l-1 1a122 122 0 0 0-.562 5.562l-.254 3.067L593 107h-2l-1 3c.476-4.537.983-9.051 1.684-13.559C593.873 82.34 595.057 68.235 596 54"/><path fill="#529FF5" d="M373 268c3.957 1.674 6.845 4.131 10 7v2l1.771.783c2.406 1.314 3.982 2.742 5.901 4.694l2.012 2.031 2.066 2.117 2.113 2.141q2.575 2.61 5.137 5.234l-2 3a141 141 0 0 1-5-5v-2l-4-2v-3l-2.188-.688c-3.439-1.605-5.214-3.533-7.812-6.312a3147 3147 0 0 0-6.426-6.23C373 270 373 270 373 268"/><path fill="#9469E3" d="M176 321v2c-1.461 1.219-1.461 1.219-3.375 2.5-2.108 1.422-3.817 2.692-5.625 4.5l-2.312.84c-4.192 1.809-6.955 5.007-10.188 8.164-2.62 2.092-4.208 2.661-7.5 2.996 6.133-7.747 18.328-21 29-21"/><path fill="#45A8F4" d="M112 618c2.972 1.125 5.334 2.223 8 4v2l1.688.352c2.627.736 4.875 1.797 7.312 3.023l2.562 1.273c2.342 1.299 4.414 2.6 6.438 4.352v2l2.438.375L143 636l1 2c-5.911-1.407-10.736-3.814-16-6.812l-2.328-1.292c-4.786-2.689-9.39-5.451-13.672-8.896z"/><path fill="#9275EA" d="M17 352c2.492 9.024.208 17.168-2 26l-.473 2.703c-.748 3.259-2.684 5.532-4.527 8.297 1.103-12.713 3.665-24.691 7-37"/><path fill="#1395F4" d="M194 565h3v2l2.168-.07c6.626-.12 12.774.441 19.297 1.558 6.475.938 13.005 1.193 19.535 1.512v2c-22.922.223-22.922.223-34-3a128 128 0 0 0-4.312-.562C196 568 196 568 194 567z"/><path fill="#34ADA6" d="M502 289c3.458-.059 6.916-.094 10.375-.125l2.926-.051c6.496-.043 12.387.677 18.699 2.176l3.566.746 2.996.692 3.067.683L546 294l1 3q-5.157-.965-10.312-1.938l-2.959-.552-2.842-.537-2.619-.492C526 293 526 293 523 292a110 110 0 0 0-5.105-.316l-2.979-.127-3.104-.119-3.138-.131q-3.837-.16-7.674-.307z"/><path fill="#F9556F" d="M507 485c0 3.697-.666 4.199-3 7l-1.184 1.461c-3.135 3.784-6.476 7.37-9.878 10.914l-2.473 2.586c-2.604 2.154-4.146 2.72-7.465 3.039l2-4h2l.781-1.805c1.327-2.39 2.61-3.6 4.719-5.32 5.131-4.33 9.799-9.088 14.5-13.875"/><path fill="#4CAEF5" d="M330.266 453.547c3.903.647 5.85 2.946 8.472 5.703l1.593 1.614a689 689 0 0 1 4.981 5.136q1.698 1.737 3.401 3.469c2.775 2.83 5.535 5.677 8.287 8.53l-3 1-1-3-2.5-.936L348 474l-1-4c-.805-.31-1.609-.62-2.438-.937C342 468 342 468 340.937 465.5L340 463c-2.125-1.312-2.125-1.312-4-2v-2l-1.813-.375C332 458 332 458 329 456h-3c2-2 2-2 4.266-2.453"/><path fill="#78DFD2" d="M707 53h1c3.882 18.721.352 39.305-2 58h-1l-1-14h1V87h1c1.336-11.307 1.099-22.634 1-34"/><path fill="#FB8C9D" d="M466 654c3.312-.059 6.625-.094 9.938-.125l2.806-.051c4.37-.03 8.358.076 12.6 1.176 6.011 1.511 12.059 1.214 18.218 1.125l3.635-.027q4.402-.036 8.803-.098v1c-18.947 1.817-37.218.798-56-2z"/><path fill="#F83D5C" d="M635 402h1c3.512 16.839 2.083 34.038 0 51h-3l.438-3.539c1.801-15.837 1.771-31.55 1.562-47.461"/><path fill="#634EE7" d="M12 382c2.634 3.815 1.829 7.247 1.125 11.562-.821 5.652-1.249 11.045-1.137 16.766.058 13.103.058 13.103-2.988 17.672-.096-10.112-.099-20.209.375-30.312l.094-2.33c.25-4.737 1.064-8.844 2.531-13.358"/><path fill="#9D68E4" d="m120 222 2 1c-1.22 3.661-2.126 3.923-5.438 5.688l-2.433 1.324C112 231 112 231 110 231v2c-9.41 5.371-9.41 5.371-14 7 2.472-5.78 7.408-8.141 12.562-11.25l2.655-1.641c6.195-3.815 6.195-3.815 8.783-5.109"/><path fill="#9F6AE4" d="m55 14 2 1c-1.26 3.78-2.897 4.785-6 7.25l-2.988 2.387L45 27l-2.73 2.145A1017 1017 0 0 1 36 34c0-4.769 3.205-7.024 6.332-10.414C46.201 19.835 50.452 16.868 55 14"/><path fill="#35A2F3" d="M183.875 648.75c9.588 2.563 19.302 3.922 29.125 5.25v1c-12.634.538-23.778-.764-36-4v-2l-2-1c3.069-1.534 5.721-.134 8.875.75"/><path fill="#5CA5E4" d="M357 479c6.741 5.527 12.807 11.694 18.938 17.875l3.228 3.242A5823 5823 0 0 1 387 508l-2 2-4-4-2.75-2.625C376 501 376 501 376 499l-3-1-5-6-3-1-1-3-2.375-.188C359 487 359 487 357.688 484.625 357 482 357 482 357 479"/><path fill="#8443DD" d="M231 197c-3.895 2.597-7.125 2.185-11.625 2.062A285 285 0 0 0 211 199l-1 1c-1.779.158-3.563.251-5.348.316l-3.271.127-3.443.119A3096 3096 0 0 1 186 201v-1c14.935-3.584 29.714-3.316 45-3"/><path fill="#EE768D" d="M542 315c6.383 1.442 12.05 3.842 17.812 6.875l1.921.992c4.116 2.226 7.107 4.678 10.267 8.133h-3v-2h-3v-2l-2.375-.438C561 326 561 326 559 325v-2l-2.301-.148-3.011-.227-2.989-.211C548 322 548 322 545 320v-2h-2z"/><path fill="#9779EA" d="M289 209c3.699.605 6.714 1.653 10.082 3.285l2.822 1.358 2.908 1.419 2.967 1.432A1921 1921 0 0 1 315 220v1c-5.929.432-9.687-.831-14.938-3.5l-2.072-1.012A473 473 0 0 1 293 214v-3l-3 1z"/><path fill="#8C6FE7" d="M112 355h1c-.549 5.251-1.861 9.698-3.938 14.562-1.853 4.434-3.601 8.857-5.062 13.438h-1c-1.458-8.061-1.458-8.061.188-11.438L105 369c1.429-3.296 2.717-6.645 4-10h2z"/><path fill="#CD7498" d="m389 619 1 2 1.75.438c2.82.705 4.871 1.91 7.25 3.562v2h4v2h3v2l6 1 1 4c-4.749-1.402-8.873-3.446-13.125-5.938l-1.84-1.052c-6.942-4.016-6.942-4.016-9.035-6.01z"/><path fill="#E37D91" d="M603 334h3v2l1.75.562c2.711 1.733 3.72 3.738 5.125 6.586C614 345 614 345 615.945 346.879c2.329 2.404 3.535 4.649 4.93 7.683l1.367 2.879L623 360l-2 3-1.434-2.859c-4.01-7.84-8.334-14.924-13.781-21.848C604 336 604 336 603 334"/><path fill="#2FC5D1" d="m384 246 1.75 2.438C388 251 388 251 390.125 251.5l1.875.5a651 651 0 0 1 2 5 132 132 0 0 0 5 4 350 350 0 0 1 4 5l2 1v2c-3.386-.58-4.982-1.629-7.348-4.09l-1.834-1.877-1.88-1.971q-1.859-1.923-3.723-3.839l-1.653-1.727C387 254 387 254 384 252c-.188-3.125-.188-3.125 0-6"/><path fill="#9F9BA7" d="M638 239a375 375 0 0 1 13.812 10.625l2.77 2.227c2.167 1.925 3.793 3.762 5.418 6.148-4.133-.519-6.175-1.656-9.188-4.5-3.68-3.434-3.68-3.434-5.812-4.5v-2l-1.938-.812C641 245 641 245 640 242h-2z"/><path fill="#5759E8" d="m96 403 2 1-1 39h-1a1282 1282 0 0 1-1.125-12.688l-.34-3.572c-.676-8.224-.154-15.65 1.465-23.74"/><path fill="#50D2D5" d="m402 230 2 1c-5.111 6.631-11.455 12.228-19 16-1.125 2.062-1.125 2.062-2 4-.348-2.684-.348-2.684 0-6 1.844-2.014 3.413-3.457 5.562-5.062l1.654-1.303c3.84-3.001 7.758-5.89 11.784-8.635"/><path fill="#46D8C4" d="M677 14c8.141 2.544 14.277 8.955 20 15l-1 2c-2.939-1.352-5.292-2.899-7.75-5l-1.859-1.562C685 23 685 23 685 21h-2v-2l-1.875-.25C679 18 679 18 677.75 15.938z"/><path fill="#EC6D89" d="M412 634c7.55 1.48 14.103 4.656 21 8v2h2v2c-7.572-2.31-15.11-5.063-22-9z"/><path fill="#F56C87" d="M457 562c5.37-.217 9.838.508 15 1.938 4.998 1.354 9.856 2.426 15 3.062v1c-10.487 2.006-20.633.053-30-5z"/><path fill="#909BF2" d="M97 412h1l.06 2.285c.404 14.66.959 29.175 2.94 43.715l-2-2v-4h-2c-1.265-8.387-.901-16.626-.562-25.062l.158-4.358q.193-5.29.404-10.58"/><path fill="#8686E8" d="M246 295c6.413-.401 11.157.374 17 3l4 1.688 3 1.312v2l3 1v2c-3.927-1.168-7.553-2.696-11.25-4.438-5.134-2.38-10.289-4.105-15.75-5.562z"/><path fill="#FB768B" d="M716 364c3 2 3 2 3.708 4.211l.46 2.734.518 3.016.502 3.164.537 3.094c.944 5.671 1.475 11.034 1.275 16.781h-1l-.586-3.324-.789-4.364-.383-2.185c-.719-3.94-1.642-7.433-3.242-11.127-.863-4.056-1.099-7.859-1-12"/><path fill="#FB8495" d="m608 648 2 1q-1.874 1.19-3.75 2.375l-2.109 1.336C598.679 656 598.679 656 595 656l-1 3c-1.523 1.203-1.523 1.203-3.375 2.25l-1.836 1.078C587 663 587 663 584 662l-1-2 2.187-.994q4.876-2.219 9.751-4.444l3.443-1.564 3.271-1.494 3.031-1.381C607 649 607 649 608 648"/><path fill="#FB6880" d="M614 624c-3.226 3.453-6.973 5.458-11.062 7.75l-2.221 1.285-2.127 1.199-1.942 1.101L595 636l-2-1v-3a965 965 0 0 1 7.688-4l2.185-1.156c3.832-1.96 6.701-3.403 11.127-2.844"/><path fill="#92A4AB" d="m551 296 1 2 2.562-.75c4.461-.324 6.843 1.434 10.438 3.75 1.993 1.014 3.99 2.02 6 3v3c-4.51-1.436-8.838-3.135-13.188-5l-3.667-1.562C551 299 551 299 548 297z"/><path fill="#A37CE8" d="M216.5 290.438c1.109.052 2.217.103 3.359.158q4.071.193 8.141.404v1l-3.812.149c-10.827.46-21.46 1.308-32.188 2.85 2.333-3.012 3.703-3.933 7.469-4.776 5.673-.452 11.358-.08 17.031.214"/><path fill="#49AEF5" d="M181 560c5.197-.317 9.218.795 14.062 2.438 4.279 1.418 8.482 2.806 12.938 3.562v1h-11v-2l-2.688.625c-3.641.412-5.075-.048-8.312-1.625l-2.812-1.125L181 562z"/><path fill="#FA6F83" d="m493 351 1 3c-1.547 2.375-1.547 2.375-3.75 5l-2.172 2.625c-4.975 5.685-4.975 5.685-10.078 6.375 1.321-2.932 2.746-4.987 5.039-7.234l1.758-1.739 1.828-1.777 1.852-1.824q2.255-2.219 4.523-4.426"/><path fill="#FA415F" d="M526 654c-3.44 2.293-4.958 2.307-9.023 2.449l-3.594.131-3.758.108-3.734.142c-10.026.332-10.026.332-14.891-.83v-1l1.94-.076q4.374-.176 8.748-.362l3.052-.119 2.959-.127 2.714-.111c11.138-.884 11.138-.884 15.587-.205"/><path fill="#FB677E" d="M527 465c0 3.921-.939 5.932-3.699 8.711l-1.989 1.664-2.136 1.809L517 479q-2.002 1.716-4 3.438L510 485l-2-1z"/><path fill="#7788EC" d="m208 398 3 2-15 15-2-3c1.312-1.5 1.312-1.5 3-3h3l.277-1.766c.895-2.766 2.185-3.998 4.285-5.984l1.942-1.859z"/><path fill="#7F97CC" d="M349.875 588.125c3.032 1.249 4.303 3.207 6.125 5.875v2l1.813.25c2.816.966 3.665 2.239 5.187 4.75v2c-3.882-1.619-6.561-4.159-9.625-7l-2.914-2.687A202 202 0 0 1 346 589c2-1 2-1 3.875-.875M350 589l1 2Z"/><path fill="#4CACF6" d="M401 295c3.574 1.547 6.126 3.705 9 6.312l2.562 2.301c2.377 2.328 4.419 4.747 6.438 7.387-4.369-.485-6.08-1.788-9-5l-3-2-3-5-3-2z"/><path fill="#A97BE7" d="m141 212 2 1c-3 2-3 2-6 2v3c-5.228 3.042-8.927 4.506-15 4 3.194-3.488 6.781-4.91 11.062-6.75l2.221-.996c1.878-.818 3.796-1.543 5.717-2.254"/><path fill="#FC7B8F" d="M571 482c4.555 3.8 8.953 7.657 13 12v2l3 1c-1.742.695-1.742.695-4 1-4.756-2.89-8.414-6.608-10-12l-2-1z"/><path fill="#3EC9D7" d="M469 301c-2.394 2.711-4.873 4.08-8.125 5.625-4.792 2.292-4.792 2.292-5.875 3.375a74 74 0 0 1-4.562.062l-2.504-.027L446 310v-1h6v-2h3v-2a499 499 0 0 1 5.312-2.562l2.989-1.442C466 300 466 300 469 301"/><path fill="#A475E3" d="m58 202 1 4h3c2.197 3.295 2.918 6.213 4 10l2 3c.125 2.688.125 2.688 0 5-2.908-3.598-5.06-7.508-7.25-11.562l-1.141-2.038c-.95-1.759-1.788-3.577-2.609-5.4z"/><path fill="#B58EEB" d="M203 197v1l-12 2 1 2h-19v-1a1885 1885 0 0 1 10.5-2l2.977-.578c5.613-1.048 10.813-1.64 16.523-1.422m-11 3h7v1h-7z"/><path fill="#35D0C8" d="m420 223-2.195 1.391c-4.97 3.154-9.928 6.314-14.805 9.609 0-3 0-3 2.188-5.5 4.494-3.995 8.738-7.525 14.812-5.5"/><path fill="#0CC8B3" d="m463 205-2.492.953-3.383 1.297-3.582 1.367c-3.849 1.502-7.643 3.112-11.422 4.781-2.441.693-3.754.429-6.121-.398 4.425-2.968 9.049-4.583 14.062-6.25l2.432-.852 2.354-.789 2.125-.719c2.324-.447 3.798-.119 6.027.61"/><path fill="#60B9F7" d="M141 657c4.524.548 8.555 1.977 12 5 1.25 3.25 1.25 3.25 1 7-1.391 2.887-3.079 5.44-5 8l-2-3 3-1 1-9h-2l-.625-1.875c-1.923-2.972-4.041-3.255-7.375-4.125z"/><path fill="#F9586E" d="M544 564c-6.359 3.316-12.883 5.243-20 6 1-3 1-3 4.062-4.625 5.019-1.962 10.725-3.33 15.938-1.375"/><path fill="#7683EC" d="M225 384c-1.61 4.074-4.538 6.765-7.625 9.75l-1.563 1.535A835 835 0 0 1 212 399c-.613-1.859-.613-1.859-1-4 1.812-2.25 1.812-2.25 4-4h2l.812-1.812c1.945-3.583 2.984-5.188 7.188-5.188"/><path fill="#4FB2F8" d="M282.625 556.438C289.058 557.51 293.334 562.87 297 568h-5l-.75-1.812c-2.026-3.545-4.43-4.914-8.25-6.188a266 266 0 0 0-5-1c2-2 2-2 4.625-2.562"/><path fill="#42A8F6" d="M294.938 345.875c4.327 1.589 6.382 4.484 9.062 8.125l-6-1-1-4-1.68.508-2.195.617-2.18.633L289 351l-2-2c2.76-2.03 4.48-2.978 7.938-3.125"/><path fill="#847EEF" d="M236 338c5.29 4.408 10.188 9.076 15 14l-3 2c-2.852-2.768-5.604-5.597-8.25-8.562l-1.516-1.692c-1.35-1.91-1.814-3.461-2.234-5.746"/><path fill="#6093F1" d="M297 320c3.757 1.628 6.617 4.014 9.75 6.625l2.984 2.477L312 331l-1 3a221 221 0 0 1-15-12z"/><path fill="#5DDAD2" d="M685 182c1.215 3.644.702 4.285-.871 7.668l-1.24 2.705-1.327 2.815-1.314 2.849A1047 1047 0 0 1 677 205l-2-4 2-1v-5h3l-.625-2.375L679 190l2-2 1-2c1-2 1-2 3-4"/><path fill="#FA7287" d="M703 515h3c-.645 4.333-2.189 7.867-4.062 11.812l-1.661 3.52L699 533h-1v-5h2l-.75-2c-.365-4.38 1.599-7.28 3.75-11"/><path fill="#31A0F4" d="M324 429c.684 1.762.684 1.762 1 4-1.152 1.895-1.152 1.895-2.938 3.812l-1.937 2.083c-3.234 3.204-6.625 6.196-10.125 9.105l-1-3a1445 1445 0 0 1 5.875-6l1.684-1.734c1.442-1.461 2.938-2.867 4.441-4.266h2z"/><path fill="#FC6D83" d="M713 347c1.953 2.929 2.754 5.081 3.688 8.438l.824 2.871c.486 2.68.382 4.154-.512 6.691h-2a386 386 0 0 1-2.125-6.188l-1.195-3.48c-.745-3.65-.417-5.107 1.32-8.332"/><path fill="#4FB1F7" d="M449 343c5.775.821 9.61 5.572 13 10 .745 2.756.546 4.148 0 7h-1l-1-6-2.312-.188C455 353 455 353 453.375 350.75L452 348l-1.688-2.812z"/><path fill="#F07B92" d="M541 314v1l-1.793.078c-5.367.385-8.238 1.057-12.207 4.922a511 511 0 0 1-3.812 3.25q-1.595 1.374-3.188 2.75l-2-1q2.592-2.594 5.191-5.18a152 152 0 0 0 3.997-4.195c4.207-3.772 8.593-2.408 13.812-1.625"/><path fill="#C8879C" d="M664 262c4.514 3.669 8.502 7.335 12 12v2c-4.053-.509-5.575-2.437-8.125-5.5-3.701-4.413-3.701-4.413-5.875-5.5 1-2 1-2 2-3"/><path fill="#FA8496" d="m533 544 2 2c-12.856 3.736-12.856 3.736-19 2l-2-2h7v-1q2.153-.545 4.312-1.062l2.426-.598C530 543 530 543 533 544"/><path fill="#FB798D" d="M445 400c1 2 1 2 .25 4.5C444 407 444 407 441 409h-3l-1 4-5 1a186 186 0 0 1 13-14"/><path fill="#7DE2D7" d="m469 202-3 1 1 2c-1.75 1.125-1.75 1.125-4 2l-1.703-1.098c-3.583-1.407-5.821.118-9.297 1.536-6.981 2.832-6.981 2.832-11 1.562 3.911-1.371 7.829-2.719 11.75-4.062l3.367-1.182 3.242-1.104 2.984-1.031c2.712-.634 4.076-.566 6.657.379"/><path fill="#31A0F5" d="m329 455 1 2c-4.625 4.875-4.625 4.875-8 6v2a106 106 0 0 1-5 4l-1-3a762 762 0 0 1 4.25-4.375l2.391-2.461c2.093-1.92 3.763-3.08 6.359-4.164"/><path fill="#569BF3" d="m312 332 1.32 1.137A878 878 0 0 0 325 343l-3 2-11-10z"/><path fill="#5AB5F9" d="M65 609c3.668-.34 5.465-.366 8.555 1.75l2.32 2.25 2.367 2.25L80 617l-4 2a823 823 0 0 1-3.5-2.938l-1.969-1.652L69 613v-1l-5-1z"/><path fill="#289EF3" d="M410 407h3c-1.561 3.512-3.161 6.379-6 9-3.044.426-5.947.294-9 0l-1-2 3.688-.125c2.583-.297 3.912-.51 5.851-2.277A397 397 0 0 0 410 407"/><path fill="#F95871" d="m477 368 2 1c-1.997 5.685-4.592 8.296-10 11l-3-1z"/><path fill="#FA8193" d="M607 741h3l-1 19h2l-1 10h-1q-.508-5-1-10l-.289-2.832c-.531-5.421-.814-10.721-.711-16.168"/><path fill="#FB576F" d="M624 615c-.392 2.383-.729 3.717-2.418 5.484-3.985 2.851-6.5 4.136-11.582 3.516l1-3 7-1 1-3c3-2 3-2 5-2"/><path fill="#FA566E" d="m597 525 2 1c-.688 1.875-.688 1.875-2 4l-2.562 1-2.438 1-.438 1.812c-.918 3.574-3.689 4.988-6.562 7.188l-2-1 5.875-6.375 1.684-1.828 1.621-1.758 1.491-1.619A145 145 0 0 1 597 525"/><path fill="#FA7187" d="m610 508 1 3c-2.925 5.24-6.992 9.564-11 14l-3-1 1.574-1.723c4.139-4.582 7.951-9.173 11.426-14.277"/><path fill="#299DF5" d="m459 353 2 1c.42 4.289.521 6.31-2.125 9.812-2.939 2.237-5.318 3.278-8.875 4.188 1-3 1-3 3.938-5.438 3.987-3.336 3.987-3.336 5.062-6.562z"/><path fill="#5B95D7" d="M338 579c1.75.188 1.75.188 4 1l4 5c2.25.812 2.25.812 4 1v2c-2.062.938-2.062.938-5 1-2.722-1.996-5.011-4.272-7-7z"/><path fill="#F85670" d="M632 453h2c-.595 13.818-.595 13.818-4 19-1.306-3.733-.76-6.771-.125-10.625l.555-3.477C631 455 631 455 632 453"/><path fill="#8E5FE1" d="M162 332a480 480 0 0 1-4.688 4.438l-2.636 2.496c-2.715 2.096-4.31 2.732-7.676 3.066q1.404-1.658 2.812-3.312l1.583-1.864c6.189-7.032 6.189-7.032 10.605-4.824"/><path fill="#46AAF3" d="M295 646c-2.78 1.853-4.783 2.686-7.938 3.625l-2.589.789C282 651 282 651 278 651l1-3c2.328-.984 2.328-.984 5.25-1.75l2.891-.797c2.963-.469 4.984-.23 7.859.547"/><path fill="#58ABF8" d="M72 583c2 1.312 2 1.312 4 3v3l5 2v5q-1.658-1.404-3.312-2.812l-1.864-1.583c-3.491-3.072-3.491-3.072-4.824-4.605.312-2.188.312-2.188 1-4"/><path fill="#45BBB0" d="M584 211c5.75-.125 5.75-.125 8 1v2l2.875.875C598 216 598 216 600 218l-4 1v-2l-12-3z"/><path fill="#67CFC5" d="M570 205c6.005.649 11.401 2.858 17 5-3 2-3 2-5.156 1.828l-2.344-.578-2.344-.547C575 210 575 210 572 208l1-1z"/><path fill="#C986AA" d="m421 539 15 10-4 1v-2l-4 1-3-5-1 2-2-1c-.625-3.062-.625-3.062-1-6"/><path fill="#5458EC" d="M10 431c2 2 2 2 2.125 4.438L12 438c0 2.936.225 5.766.5 8.688l.281 3.011L13 452h-3z"/><path fill="#F9788E" d="M699 312c3.177 1.588 3.868 4.805 5.188 7.938l.865 1.958c.714 1.675 1.338 3.388 1.947 5.104l-1 2-1-3h-3l-.375-3.438L701 319l-2-1z"/><path fill="#FA7389" d="M663 609c6.523.492 6.523.492 8.938 3.062L673 614c-1 2-1 2-3 3l-1.062-2c-1.938-2-1.938-2-5.626-2.25L660 613z"/><path fill="#54AEF5" d="M149 487c0 4.015-1.668 5.82-4 9h-1l-1 7 3 1-1 4c-3.276-3.811-3.672-6.527-3.57-11.449.993-4.441 4.075-6.858 7.57-9.551"/><path fill="#5D99F7" d="M111 489c2.406 3.058 4.362 6.225 6.25 9.625l1.641 2.914L120 504l-1 2c-3.518-2.346-4.378-4.189-6.25-7.938l-1.641-3.214C110 492 110 492 111 489"/><path fill="#56D0DB" d="M405 267c3.592 3.49 7.019 6.966 10 11l-1 3-11-11 2-1z"/><path fill="#FA697F" d="m674 802 1 2 7-1c-2.215 2.215-3.742 2.986-6.901 3.022l-2.111-.143-2.295-.147-2.381-.17-2.416-.158q-2.948-.195-5.896-.404v-1z"/><path fill="#5DA7E6" d="M327 570c3.626.57 5.255 1.924 7.75 4.562l1.859 1.942L338 578l-1 3a430 430 0 0 1-3.875-3.25l-2.18-1.828c-1.916-1.893-2.909-3.459-3.945-5.922"/><path fill="#FB7083" d="m638 629 2 1c-.312 1.875-.312 1.875-1 4-2.717 1.812-4.906 3.019-8 4l-4-1z"/><path fill="#389EF5" d="M80 593c3.568.576 5.252 1.87 7.75 4.438l1.859 1.871C91 601 91 601 91 603c-4.349-.502-6.925-3.061-10-6-.875-2.312-.875-2.312-1-4"/><path fill="#D56B91" d="m431 548 1 2 2.625-.25c4.168.309 6.16 1.648 9.375 4.25v2l2 1c-2.663-.512-4.563-1.293-7-2.562-3-1.438-3-1.438-7-1.438l-2-4z"/><path fill="#30A1F6" d="M441 334c3.21 1.382 5.049 2.924 7.25 5.625l1.578 1.914L451 343l-1 2h-3l-.25-2.375c-.75-2.625-.75-2.625-2.688-3.75L442 338l-2-3z"/><path fill="#81B8B9" d="m546 294 1 3-21-4v-1c7.002-1.481 13.326-.691 20 2"/><path fill="#B991EB" d="M169 176h1c.366 5.497.366 5.497-1.137 7.559-2.469 1.91-4.902 2.718-7.863 3.691l-3.188 1.078C155 189 155 189 152 188l8-3-1-2 3-1v2h4l1-3h2z"/><path fill="#FA637A" d="M493 499c0 3.776-1.02 5.74-3.312 8.688-2.153 1.674-4.017 1.951-6.688 2.312l2-4h2l.75-1.812c1.414-2.474 2.901-3.622 5.25-5.188"/><path fill="#808DF0" d="M336 235c3.34 1.299 5.961 3.41 8.75 5.625l2.422 1.914L349 244c-2 1-2 1-4.375.25-2.542-1.21-4.559-2.337-6.625-4.25v-3l-4-1z"/></svg>