<svg xmlns="http://www.w3.org/2000/svg" width="475" height="397" viewBox="0 0 475 397"><path fill="#BF8B9F" d="M418.281 157.629c.897.782 1.794 1.565 2.72 2.37.896.773 1.793 1.545 2.718 2.34A308 308 0 0 1 431 169c.662.588 1.325 1.174 2.008 1.778 21.254 19.663 33.674 51.492 35.131 79.94.503 14.246-.422 27.508-4.139 41.283l-.617 2.302C457.281 316.21 445.623 334.62 430 351c-.512.54-1.023 1.083-1.55 1.64-4.159 4.299-8.542 7.888-13.45 11.298l-2.249 1.565c-18.634 12.753-38.523 19.85-60.75 23.497l-3.259.586C319.844 392.783 289.35 388.468 263 376l-3.539-1.598c-16.756-7.787-32.15-18.436-45.775-30.882a310 310 0 0 0-5.326-4.658c-7.227-6.32-13.962-13.162-20.772-19.923a1100 1100 0 0 0-5.22-5.138 1364 1364 0 0 1-7.556-7.465l-2.376-2.308-2.167-2.175-1.918-1.894c-1.742-2.526-1.782-3.95-1.35-6.96a61 61 0 0 1 5.546-6.14l1.72-1.72a530 530 0 0 1 3.621-3.57 571 571 0 0 0 5.518-5.483q1.756-1.74 3.516-3.477l1.66-1.66c2.71-2.625 4.635-4.451 8.418-4.95 3.207 1.995 5.49 4.532 7.902 7.384 4.667 5.364 9.677 10.383 14.703 15.407q2.448 2.455 4.883 4.923C231.01 300.269 237.7 306.308 245 312l1.805 1.425C262.61 325.769 279.605 335.633 299 341l3.476.969c23.486 5.43 49.795 3.678 71.524-6.97l2.79-1.335c21.36-10.891 34.777-29.592 42.116-51.887 6.144-21.22 2.52-43.911-7.766-63.043-10.896-19.44-28.716-33.833-50.074-40.312-26.049-7.291-51.509-5.463-76.035 5.96-4.005 1.822-6.122 2.78-10.53 1.993-4.316-2.416-7.62-6.27-11.005-9.808-2.206-2.268-4.46-4.336-6.87-6.38-3.488-3-6.626-5.9-8.5-10.187-.18-2.867.545-4.45 1.874-7 46.883-37.186 123.298-32.364 168.281 4.629"/><path fill="#699BE5" d="m216 147 1.997 1.148C227.979 153.974 237.119 160.62 246 168l1.693 1.397c13.365 11.077 25.99 23.044 38.108 35.466C288 207 288 207 290.293 208.668L292 210v2l1.777.801c4.821 2.601 8.847 6.89 11.348 11.761.875 3.438.875 3.438.125 6.313-2.716 3.772-5.828 6.876-9.191 10.074C294 243 294 243 292 246h-2l-.625 1.688c-1.961 3.298-4.231 5.135-7.375 7.312-3.953.607-5.498.357-8.789-1.984l-2.836-2.766-1.55-1.487A374 374 0 0 1 264 244l-1.591-1.586a1396 1396 0 0 1-6.193-6.214 160 160 0 0 0-9.97-9.235c-2.463-2.155-4.846-4.383-7.231-6.624-6.459-6.065-13.008-11.906-20.015-17.341l-1.674-1.304c-24.727-19.122-52.767-31.121-84.611-27.235C113.114 177.327 95.976 184.935 81 198l-1.859 1.605c-14.23 13.218-23.511 33.444-24.453 52.719C53.915 278.22 61.202 299.781 79 319c20.737 20.11 46.752 25.705 74.879 25.316 13.396-.426 25.919-3.342 38.273-8.461 3.351-1.006 4.604-1.174 7.848.145 2.597 2.006 4.913 4.262 7.25 6.562q1.999 1.926 4 3.848l1.945 1.88c2.279 2.159 4.656 4.186 7.055 6.21 3.22 2.861 5.546 5.24 6.75 9.5-.742 4.072-1.456 5.608-4.852 8.055a107 107 0 0 1-3.773 1.82l-2.095 1.001c-37.969 17.438-82.049 21.047-121.706 7.094C76.333 375.094 61.056 365.483 47 352l-2.332-2.176C31.656 337.344 23.029 321.437 16 305l-1.117-2.52c-11.796-29.032-9.359-63.408 2.087-92.05C24.443 192.799 35.442 178.432 49 165l2.262-2.289C94.604 120.974 165.314 117.839 216 147"/><path fill="#EE778E" d="M356.5 185.375c12.925.921 25.787 9.609 35.5 17.625-.559 4.141-2.975 6.897-5.5 10.063l-1.359 1.731A829 829 0 0 1 381 220l-2.348 2.945a333 333 0 0 1-13.316 15.473 430 430 0 0 0-5.593 6.32c-13.436 15.359-27.985 29.692-42.409 44.113a4727 4727 0 0 0-9.216 9.247 4020 4020 0 0 1-7.147 7.159q-1.704 1.706-3.403 3.417a1310 1310 0 0 1-4.714 4.715l-2.702 2.707C288 318 288 318 286 318l-1 3c-2.402 2.494-3.752 2.975-7.23 3.32-4.316-.366-6.979-1.738-10.458-4.133l-1.805-1.21c-16.34-11.26-16.34-11.26-18.526-18.222.023-4.617 1.053-5.699 4.199-8.841l1.89-1.766 1.919-1.884a588 588 0 0 1 6.136-5.889q2.042-1.981 4.078-3.969 3.758-3.661 7.551-7.287A468 468 0 0 0 281 263l4.128-4.113q6.48-6.454 12.955-12.915 2.785-2.778 5.574-5.553 4.046-4.029 8.085-8.064l2.495-2.478c4.276-4.276 8.398-8.624 12.336-13.214 1.84-2.145 3.76-4.212 5.677-6.288 4.2-4.639 8.063-9.493 11.856-14.465 7.419-9.647 7.419-9.647 12.394-10.535"/><path fill="#4EAEEA" d="M199.25 198.75c9.164 3.055 16.421 9.134 23.75 15.25l1.891 1.516c2.536 2.043 4.283 3.744 6.109 6.484-.271 3.731-2.166 5.529-4.754 8.082l-2.342 2.326-2.466 2.404-2.385 2.37c-3.443 3.397-6.912 6.703-10.59 9.844-5.205 4.533-10.027 9.442-14.878 14.344a2489 2489 0 0 1-5.12 5.156q-7.276 7.313-14.537 14.642a4734 4734 0 0 1-8.936 8.991q-1.7 1.71-3.395 3.425-2.356 2.382-4.723 4.754l-2.713 2.735C152 303 152 303 150 303l-.715 1.715c-3.288 5.846-9.534 11.014-15.785 13.41-5.901 1.507-11.373 1.272-16.957-1.223-5.725-3.408-9.423-7.542-11.543-13.902-1.042-6.528.143-12.048 3-18 1.789-2.205 3.451-4.065 5.48-6.004l1.612-1.597c1.687-1.666 3.391-3.313 5.096-4.961q1.686-1.662 3.369-3.327c4.318-4.248 8.641-8.439 13.235-12.39 4.782-4.156 9.221-8.627 13.677-13.127l2.666-2.678q4.185-4.205 8.365-8.416 5.512-5.55 11.031-11.094l2.517-2.541c4.273-4.291 8.606-8.418 13.236-12.323 1.752-1.574 3.233-3.268 4.778-5.042C196 199 196 199 199.25 198.75"/><path fill="#A77BDF" d="M56 12c6.399 5.528 8.954 11.362 9.676 19.762l.312 3.349.324 3.577c3.132 31.326 10.206 61.629 23.157 90.402.666 2.395.381 3.587-.469 5.91a71 71 0 0 1-7.312 3.812q-2.195 1.045-4.383 2.098l-2.204 1.055c-5.847 2.88-11.775 5.994-16.683 10.301C56 154 56 154 53.965 153.812c-2.907-1.201-3.536-3.42-4.754-6.18l-.961-2.32-1.037-2.429C33.927 111.26 25.561 78.66 21.062 44.688l-.389-2.852C19.574 32.713 19.563 23.782 25 16c8.914-9.117 19.999-10.312 31-4"/><path fill="#53D3C7" d="M445 11c5.489 4.339 9.502 9.189 10.434 16.32.03 29.712-7.243 59.572-16.434 87.68l-.848 2.603C429.984 142.402 429.984 142.402 426 147c-3.402 1.191-5.727 1.469-9.154.207-2.404-1.19-4.715-2.483-7.034-3.832q-2.516-1.403-5.039-2.793l-2.461-1.361c-3.927-2.074-7.995-3.65-12.16-5.186C388 133 388 133 386 130c.488-2.087.488-2.087 1.527-4.516l1.142-2.754 1.269-2.98c11.172-27.525 17.714-56.06 19.95-85.667.71-8.395 2.273-15.296 8.924-20.958C426.559 6.827 436.32 6.157 445 11"/><path fill="#49ACE9" d="M197.352 266.645c3.148 1.61 4.723 3.353 7.023 6.043 5.324 6.034 10.93 11.776 16.607 17.474a848 848 0 0 1 2.985 3.013c8.505 8.614 17.565 16.354 27.283 23.575l3.008 2.247a242 242 0 0 0 6.867 4.816c2.749 2.09 3.638 3.094 4.875 6.187 1.625 1.75 1.625 1.75 3 3l-1 2h2c1.369 3.696.419 5.453-1 9a70 70 0 0 0 1 4c-.062 2.438-.062 2.438-1 5-1.434 1.207-2.875 2.407-4.375 3.532-2.484 2.246-3.934 4.987-5.546 7.894l-1.08 1.574h-2l-1 4c-4.411.39-6.597-.644-10.245-3.078l-3.017-2.002-3.174-2.17-3.256-2.2c-7.653-5.24-14.86-10.773-21.671-17.063-1.73-1.572-3.497-3.096-5.268-4.621-7.23-6.32-13.968-13.164-20.78-19.927a1204 1204 0 0 0-5.22-5.138 1297 1297 0 0 1-7.555-7.465l-2.377-2.307-2.166-2.176-1.92-1.894c-1.741-2.526-1.783-3.948-1.35-6.96a62 62 0 0 1 5.618-6.14l1.734-1.72c1.83-1.808 3.676-3.598 5.523-5.39q1.856-1.83 3.707-3.663c10.497-10.338 10.497-10.338 13.77-9.441"/><path fill="#7F90E2" d="M124 186c2.349 2.253 4.279 4.791 6.25 7.375l3.48 4.418 1.701 2.189c4.391 5.649 8.829 11.242 13.788 16.405l1.677 1.757a227 227 0 0 0 3.296 3.355c2.224 2.308 3.695 3.966 4.367 7.142-.711 3.003-1.803 4.143-4.059 6.234l-2.23 2.098a416 416 0 0 1-8.059 7.015 87 87 0 0 0-4.984 4.93l-1.462 1.54a489 489 0 0 0-4.152 4.48C131 257 131 257 128.379 257.004c-2.538-1.071-3.882-2.063-5.754-4.066l-1.828-1.942L119 249l-1.547-1.715a377 377 0 0 1-3.324-3.816 519 519 0 0 0-5.039-5.75c-7.015-7.939-13.552-16.11-19.824-24.649C87 210 87 210 86 209c-.345-3.358-.506-5.284 1.477-8.09 8.134-6.996 25.221-19.336 36.523-14.91"/><path fill="#EF778E" d="M346 265c9.912 6.433 21.752 16.172 25 28 1.165 7.202-.787 12.602-4.75 18.688-4.603 4.73-9.333 6.954-15.852 7.41-7.446-.304-13.189-2.889-18.398-8.098l-1.875-2.375c-2.496-3.083-5.307-5.51-8.32-8.074C320 299 320 299 318 297c0-3.777 1.124-5.146 3.592-8.046a269 269 0 0 1 3.412-3.349l1.812-1.794a1050 1050 0 0 1 5.746-5.623q1.947-1.917 3.889-3.834 4.76-4.692 9.549-9.354"/><path fill="#AB86AF" d="M264 327c4.037 1.209 7.64 2.781 11.354 4.767 10.347 5.523 21.1 9.103 32.646 11.233v1l-6 1v-2l-2.312.562C297 344 297 344 294 343l-1-1c-2.982 2.294-4.684 3.705-5.59 7.418-.449 4.162-.504 7.535.59 11.582v3l.035 2.742.027 3.133.036 3.117c-.091 2.795-.461 5.291-1.098 8.008h7l2 5c-6.372-.576-12.015-2.066-18.062-4.125l-2.763-.928c-8.01-2.758-15.621-6.129-23.175-9.947l2-3h2v-2h2c1.138-2.195 2.091-4.273 2.875-6.625 1.358-2.867 2.318-3.099 5.125-4.375 2.198-2.276 2.948-3.452 3.25-6.625C269 346 269 346 268 344a254 254 0 0 1 2-6v-3l-3 1 1-4-2-1.375-2-1.625z"/><path fill="#80D5E4" d="M408 150a97 97 0 0 1 4 4l-4 1-1-3c-2.066-.73-2.066-.73-4.562-1.188l-2.504-.48L398 150v-3l-4 1v-3c-3.188-1.25-3.188-1.25-7-2-2.938 1.875-2.938 1.875-5 4l-3-2 3-5-1.926-.348c-4.946-1.049-9.807-2.423-14.685-3.748A494 494 0 0 0 358 134l-2.227-.597c-7.569-1.807-15.199-1.706-22.932-1.664-2.336.011-4.672 0-7.009-.012-7.797-.007-15.254.241-22.832 2.273l-2.059.502c-5.085 1.305-10.038 3.129-15.001 4.835a470 470 0 0 1-5.147 1.718c-7.041 2.476-13.532 5.768-20.043 9.383l-2.567 1.377c-5.94 3.407-5.94 3.407-7.23 7.533L251 162l7 2 1 6h2l3 3 3 1 1.625 2.875c2.682 3.528 4.405 4.905 8.617 6.121 5.021.007 9.131-2.751 13.406-5.141 6.794-3.76 13.525-5.214 21.164-6.328 2.56-.423 4.972-.974 7.481-1.605 4.785-1.082 9.154-.987 14.019-.61l2.501.169q2.463.17 4.925.354c1.982.145 3.966.253 5.95.356 5.507.324 9.623.814 14.312 3.809l-1 2 3 2c-3.854-.492-7.593-1.109-11.375-2-22.739-5.112-45.7-1.349-66.594 8.383-4.004 1.821-6.122 2.779-10.531 1.992-4.315-2.416-7.619-6.269-11.004-9.809-2.206-2.267-4.46-4.335-6.871-6.378-3.487-3.001-6.624-5.901-8.5-10.188-.179-2.867.546-4.449 1.875-7 43.523-34.521 112.957-32.57 158-3"/><path fill="#F191A3" d="m390 193 7 1v2h2c3.8 3.286 6.276 6.799 8.789 11.133C409 209 409 209 410.455 210.386c1.629 1.701 2.484 3.185 3.483 5.309l1.019 2.156 1.043 2.274 1.079 2.33c5.541 12.125 8.298 23.532 8.171 36.92l-.016 3.05c-.224 17.561-.224 17.561-4.234 23.575a86 86 0 0 0-1.328 4.148c-1.575 4.876-3.794 9.094-6.422 13.477l-1.33 2.249c-3.109 5.121-6.438 9.121-10.92 13.126l-1 3a190 190 0 0 1-5 3 256 256 0 0 0-4.25 3.312c-6.874 5.393-13.348 10.03-21.75 12.688l-3.426 1.184c-14.572 4.932-35.06 11.125-50.051 4.765L314 346c3.202-.943 6.113-1.137 9.445-1.176 17.969-.352 34.225-1.823 50.555-9.824l2.789-1.336c21.361-10.891 34.779-29.592 42.117-51.887 6.144-21.219 2.52-43.911-7.765-63.043-4.878-8.702-10.895-15.922-18.141-22.734a530 530 0 0 1-3-3"/><path fill="#AA93E3" d="M156 128v1c-8.553 2.593-17.237 2.69-26.115 3.123-17.596 1.018-17.596 1.018-24.885 5.877a71 71 0 0 1-4.688.875c-4.273.789-7.649 2.054-11.449 4.125C87 144 87 144 83.5 145.438c-3.53 1.576-6.592 3.437-9.801 5.574C72 152 72 152 70 152v2l-1.828.953-2.422 1.297-2.391 1.266C60.842 159.1 59.069 160.871 57 163a389 389 0 0 1-5.188 4.125c-12.202 9.966-20.743 22.277-27.742 36.301C23 205 23 205 20 206c3.63-11.848 11.312-21.499 19-31l1.809-2.281C45.537 167.004 51.188 162.568 57 158l2.145-1.809C86.364 133.656 121.669 127.031 156 128"/><path fill="#739CCF" d="M264 327c6.164 1.666 11.483 4.878 17 8l-2 1 .281 1.836c.516 5.99-.387 8.946-4.281 13.602l-2.25 2.433C271 356 271 356 271 359c-.449 2.51-.926 5.003-1.438 7.5l-.408 2.051c-.583 2.887-1.221 5.651-2.154 8.449-5.233-1.64-10.152-3.39-15-6l2-3h2v-2h2c1.138-2.195 2.091-4.273 2.875-6.625 1.358-2.867 2.318-3.099 5.125-4.375 2.198-2.276 2.948-3.452 3.25-6.625C269 346 269 346 268 344a254 254 0 0 1 2-6v-3l-3 1 1-4-2-1.375-2-1.625z"/><path fill="#6CD7D6" d="M408 150a97 97 0 0 1 4 4l-4 1-1-3c-2.066-.73-2.066-.73-4.562-1.188l-2.504-.48L398 150v-3l-4 1v-3c-3.188-1.25-3.188-1.25-7-2-2.938 1.875-2.938 1.875-5 4l-3-2 3-5-1.926-.348c-4.946-1.049-9.807-2.423-14.685-3.748A494 494 0 0 0 358 134l-2.227-.597c-7.569-1.807-15.199-1.706-22.932-1.664-2.336.011-4.672 0-7.009-.012-7.797-.007-15.254.241-22.832 2.273l-2.075.505c-2.771.713-5.459 1.66-8.175 2.557-5.191 1.622-9.347 2.362-14.75 1.938 35.79-23.86 96.81-10.789 130 11"/><path fill="#F0859B" d="m457 308 1 2c-.662 1.781-.662 1.781-1.773 3.93l-1.237 2.393-1.365 2.552-1.386 2.605C446.245 332.506 438.656 341.924 430 351l-1.55 1.64c-4.159 4.299-8.542 7.888-13.45 11.298l-2.249 1.565C396.07 376.919 372.82 389.453 352 388c1.817-2.56 3.222-3.862 6.352-4.418q2.602-.205 5.21-.309c2.629-.294 4.123-1.034 6.438-2.273q2.831-.973 5.688-1.875c7.557-2.479 14.579-5.642 21.585-9.391C399 369 399 369 402 369v-2q1.905-.972 3.812-1.938l2.145-1.089C410 363 410 363 413 362v-2l1.875-.875C417 358 417 358 419 356l2 1 .812-1.75c1.217-2.306 2.491-4.271 4.188-6.25h2l1-3h2v-2h3v-3l3-2 2-3 1.438-1.875C442 332 442 332 443.562 329.25L445 327h2l.812-2.078c1.325-3.259 2.738-6.467 4.188-9.672l1.562-3.484C455 309 455 309 457 308"/><path fill="#9896E4" d="M134 170h8v1l18 2v1l-1.842-.048C128.923 173.3 103.669 178.224 81 198l-1.859 1.605C71.396 206.8 65.322 216.416 61 226l-2-2c.374-3.514 2.149-6.259 3.938-9.25l1.589-2.703L66 210h2l-1-3 3-2 1-3a534 534 0 0 1 5-4l2.062-2.75L80 193h4l.625-2.312c1.821-3.559 3.748-4.165 7.375-5.688 2.604-1.149 3.909-1.896 5.812-4.062 2.946-2.609 5.32-2.422 9.188-2.938a57 57 0 0 0 3.625-1.875c7.196-3.837 15.356-5.895 23.375-4.125z"/><path fill="#8D91BF" d="M279 336c1.938.312 1.938.312 4 1l1 3-3 6c-1.822 5.335-2.059 10.325-1.938 15.938.115 6.214-.825 11.284-3.062 17.062l-5-1v-3l-1 2-4-1 .91-3.395q.577-2.209 1.152-4.417l.604-2.237c1.447-5.611 1.447-5.611.334-8.951l1.715-1.898 2.223-2.477 2.214-2.461c2.7-3.161 3.045-5.212 3.41-9.289l.254-2.758z"/><path fill="#69C0EF" d="M200 336c2.02 1.41 2.02 1.41 3.812 3.062l1.833 1.661L207 342l-3 1-2.25-2c-2.75-2-2.75-2-5.938-2-3.923 1.029-7.465 2.449-11.195 4.02-3.32 1.243-6.608 1.905-10.097 2.488-2.52.492-2.52.492-5.625 1.496-12.314 3.581-27.049 2.522-39.583.746l-2.623-.368c-4.508-.731-7.914-1.645-11.689-4.382l1-2 2.734.656c24.408 5.33 50.305 3.776 73.418-5.801 3.193-.959 4.723-.952 7.848.145"/><path fill="#65C1EA" d="M269 189c5.242 4.289 10.008 8.932 14.735 13.772 2.121 2.157 4.188 4.171 6.628 5.966L292 210v2l1.777.801c4.821 2.601 8.847 6.89 11.348 11.761.875 3.438.875 3.438.125 6.313-2.716 3.772-5.828 6.876-9.191 10.074C294 243 294 243 292 246h-2l-.75 1.812c-1.414 2.474-2.901 3.622-5.25 5.188v-4h2v-3l5-1 1-4h2l.375-1.75c.954-3.434 1.589-5.641 4.75-7.5L301 231c.561-3.205.492-5.268-1.348-8.004-2.769-3.207-5.66-6.094-8.964-8.746-2.565-2.147-3.293-3.361-4.688-6.25a89 89 0 0 0-4-2c-4.869-3.679-9.579-7.908-13-13z"/><path fill="#9E8EB7" d="m282 336 1.625.516c8.045 2.487 16.198 4.485 24.375 6.484v1l-6 1v-2l-2.312.562C297 344 297 344 294 343l-1-1c-3.024 2.326-4.71 3.699-5.555 7.488A100 100 0 0 0 287 359c-2.529 2.734-4.896 4.931-8 7-2.065-6.884-.533-14.444 2-21 2.111-5.667 2.111-5.667 1-9m-3 22 1 2Z"/><path fill="#5FC5E4" d="M284 138v2l-2.176.707c-7.409 2.611-14.221 5.907-21.074 9.731l-2.564 1.376c-5.942 3.407-5.942 3.407-7.233 7.534L251 162l7 2 1 6h2l3 3 3 1 1.625 2.812c3.131 4.203 6.552 5.436 11.375 7.188v1c-4.888.158-7.666.074-11.543-3.047a232 232 0 0 1-5.031-5.316c-2.161-2.349-4.362-4.399-6.801-6.449-3.487-3.001-6.624-5.901-8.5-10.188-.18-2.872.539-4.445 1.875-7 9.022-7.084 22.373-15 34-15"/><path fill="#67C0EF" d="M98 382q3.157.212 6.312.438l3.551.246C111 383 111 383 114 384v2l2.352-.254c8.297-.782 16.368-.823 24.648.254l1 1c1.476.098 2.958.13 4.438.125l2.433.008C151 387 151 387 153 386c2.269-.098 4.541-.13 6.812-.125l3.708-.008c2.97.114 5.599.442 8.48 1.133l1-2 7 1c-18.298 10.674-52.774 4.991-72.336-.09A210 210 0 0 1 98 383z"/><path fill="#AAAAB3" d="M374 157c2 2 2 2 2 5-1.785 4.194-3.815 6.815-7 10l-1 4 10 4 1.688-2.438c2.531-2.804 3.638-3.256 7.312-3.562l-1.164 1.609-1.461 2.141-1.477 2.109C382 182 382 182 382.852 184.266L384 186h4v5a1736 1736 0 0 1-7.715-3.875L376.062 185l-2.13-1.078c-3.594-1.805-7.162-3.506-10.932-4.922v-2l-5-1v-1l2.805-.141C364 174 364 174 365.758 171.453l1.367-3.203c1.873-4.296 3.805-7.692 6.875-11.25m15 13 2 1-4 3z"/><path fill="#9F88E0" d="M72 150v2h-2v2l-1.828.953-2.422 1.297-2.391 1.266C60.842 159.1 59.069 160.871 57 163a389 389 0 0 1-5.188 4.125c-12.202 9.966-20.743 22.277-27.742 36.301C23 205 23 205 20 206c3.63-11.848 11.312-21.499 19-31l1.809-2.281C45.535 167.006 51.184 162.56 57 158l2.566-2.09 2.372-1.91 2.089-1.688C66.663 150.559 68.857 150 72 150"/><path fill="#EE869A" d="m390 193 7 1v2h2c3.8 3.286 6.276 6.799 8.789 11.133C409 209 409 209 410.455 210.386c1.629 1.701 2.484 3.185 3.483 5.309l1.019 2.157 1.043 2.273 1.076 2.328c5.651 12.375 7.27 22.508 6.486 36.109l-.158 3.057q-.192 3.691-.404 7.381h-1l-.028-1.873c-.495-26.105-6.397-48.567-25.284-67.627A580 580 0 0 0 393 196a530 530 0 0 1-3-3"/><path fill="#F18D9F" d="M461 226h3c.489 1.789.965 3.581 1.438 5.375l.808 3.023c5.141 24.56 1.343 49.37-7.246 72.602l-2-3c.781-2.258.781-2.258 2-5 .54-2.283 1.037-4.576 1.5-6.875.727-3.597 1.488-7.085 2.555-10.598 3.314-12.367 2.948-28.009.945-40.527-.081-2.673-.047-5.324 0-8h-2z"/><path fill="#74D4CD" d="M359 131c14.004 2.259 26.832 7.083 39.375 13.625l2.72 1.416c4.175 2.245 7.808 4.274 10.905 7.959l-4 1-1-3c-2.066-.73-2.066-.73-4.562-1.188l-2.504-.48L398 150v-3l-4 1v-3c-3.188-1.25-3.188-1.25-7-2-2.938 1.875-2.938 1.875-5 4l-3-2 3-5-2.023-.383c-3.559-.738-7.082-1.591-10.602-2.492l-2.023-.488c-3.528-.91-6.155-1.615-8.352-4.637z"/><path fill="#9D98E4" d="m124 186 1 5-2.129-1.105c-3.641-1.135-5.262-.508-8.809.793l-3.183 1.152C108 193 108 193 104.5 194.75 102 196 102 196 98 196v2c-1.68 1.289-1.68 1.289-3.875 2.625l-2.18 1.352C90 203 90 203 88 203l.625 2.375L89 208l-2 2c-1-1-1-1-1.289-3.816.348-3.83 1.045-4.654 3.914-7.122C98.243 191.978 112.529 183.097 124 186"/><path fill="#E991A7" d="M294 384c9.258-.193 17.966-.307 27 2 4.47.838 8.93 1.314 13.453 1.746 3.525.352 7.034.799 10.547 1.254v1c-16.642.354-32.601-.018-49-3v-2z"/><path fill="#82D0CD" d="m327.246 169.086 2.521.13a1210 1210 0 0 0 5.396.314q2.69.155 5.38.322c2.078.125 4.156.232 6.234.336 5.476.33 9.561.833 14.223 3.812l-1 2 3 2c-3.854-.492-7.593-1.11-11.375-2-3.947-.916-7.84-1.411-11.875-1.754C338 174 338 174 337 173a108 108 0 0 0-5.566-.098l-3.409.01-3.588.026-3.599.013q-4.419.019-8.838.049l1-2q3.489-.579 7-1c2.866-.955 4.31-1.074 7.246-.914"/><path fill="#7C99CA" d="M270 360c-.452 5.915-1.158 11.352-3 17-5.233-1.64-10.152-3.39-15-6l2-3 1.688.75c2.312.25 2.312.25 4.687-1.375L263 365c5.847-5 5.847-5 7-5"/><path fill="#EF8EA1" d="M438 179c4.372 1.514 6.334 4.854 8.75 8.562l1.311 1.989c6.421 10.014 14.52 23.258 13.939 35.449-2.368-2.368-2.999-4.297-4.125-7.438l-1.07-2.933C456 212 456 212 456 209h-2l-.516-1.828c-1.482-4.888-2.779-7.591-6.484-11.172-.75-3.25-.75-3.25-1-6h-2v-3h-2v-3l-4-2z"/><path fill="#E498AC" d="M356.688 185.125c7.824.947 15.72 4.705 22.312 8.875l-4 1v-2h-4v-2l-1.687.625c-3.017.489-4.51-.451-7.313-1.625-3.375-1.125-3.375-1.125-7-1-2.055 1.857-3.663 3.861-5.356 6.051-1.952 2.315-3.707 3.237-6.644 3.949 2.788-6.139 6.935-12.273 13.688-13.875"/><path fill="#A8A4E7" d="M134 170h8v1l18 2v1l-1.842-.048c-11.177-.249-21.964-.345-32.927 2.069-6.166 1.344-6.166 1.344-9.231-.021l-1-2a499 499 0 0 1 6.125-1.562l3.445-.879c3.495-.57 6.002-.346 9.43.441z"/><path fill="#A697BF" d="M278 369h2c1.127 4.507 1.127 4.507.438 7.188L280 378c2 2 2 2 5 4 1.672-.308 3.338-.644 5-1 2.812.438 2.812.438 5 1l1 4c-6.734-.564-12.635-2.346-19-4.562l-2.926-.999Q270.534 379.23 267 378l2-3h2v3l6-1z"/><path fill="#7EA3D2" d="M264 327c6.164 1.666 11.483 4.878 17 8v1l-2.812.625c-4.042 1.743-4.375 3.502-6.188 7.375-2.188.875-2.188.875-4 1l1-3.312c1-3.688 1-3.688 1-6.688l-3 1 1-4-2-1.375-2-1.625z"/><path fill="#7AB3B5" d="M374 157c2 2 2 2 2 5-1.376 3.235-2.592 5.604-5.125 8.062-2.214 2.288-2.529 3.823-2.875 6.938-4.054 1.158-6.218.837-10-1v-1l2.805-.141C364 174 364 174 365.758 171.453l1.367-3.203c1.873-4.296 3.805-7.692 6.875-11.25"/><path fill="#EE748D" d="m423 247 2 1c.516 31.226.516 31.226-4 38-.625 2.188-.625 2.188-1 4h-2q.433-2.719.875-5.438l.492-3.058a124 124 0 0 1 1.664-7.692c1.228-5.43 1.418-10.825 1.594-16.374l.117-3.057q.14-3.69.258-7.381"/><path fill="#78CCDE" d="M430 132h2c-.62 3.669-1.592 6.858-3.125 10.25l-1.133 2.641C426 147 426 147 422.754 148.012c-4.533-.014-6.807-1.167-10.692-3.45l-3.464-1.996L406 141v-1c4.187-.429 6.857.259 10.562 2.062 2.99 1.44 4.119 1.964 7.5 1.688L426 143l1-3a702 702 0 0 1 1.562-4.188l.817-2.167z"/><path fill="#B09BE6" d="M156 128v1c-5.548 1.535-10.695 2.38-16.438 2.625l-2.319.115c-8.08.364-16.157.352-24.243.26v-1c14.448-2.482 28.346-3.414 43-3"/><path fill="#A395BD" d="m282 336 1.625.516c8.045 2.487 16.198 4.485 24.375 6.484v1l-6 1v-2l-2.312.562C297 344 297 344 294 343l-1-1-2.375 2.438C288 347 288 347 286 348l-1-5-3 2 .562-2.812C283 339 283 339 282 336"/><path fill="#8298C8" d="M276 336h3c.617 4.692.886 8.484-1.559 12.668-1.737 2.199-3.514 4.297-5.441 6.332l-2-1c1.059-3.403 2.009-6.014 4-9v-3c.8-4.8.8-4.8 2-6"/><path fill="#73C4F1" d="m116 341 2.805.621c13.32 2.739 26.629 3.096 40.195 3.379v1q-7.015.327-14.032.592a632 632 0 0 0-4.763.207c-16.234.761-16.234.761-24.205-2.799z"/><path fill="#9CB6BA" d="M383 138c5.582 1.618 10.509 4.175 15.625 6.875l2.563 1.316c4.168 2.19 7.729 4.147 10.812 7.809l-4 1-1-3c-2.066-.73-2.066-.73-4.562-1.188l-2.504-.48L398 150v-3l-4 1v-3l-2.75-.875c-5.079-1.758-5.079-1.758-7.25-3.125z"/><path fill="#3BADEB" d="M173 345c-6.369 3.412-12.647 3.368-19.75 3.688l-3.211.181c-6.131.278-11.177-.021-17.039-1.869v-1l2.228-.076q5.073-.176 10.147-.362l3.504-.119c6.05-.222 12.017-.556 18.022-1.342 2.239-.108 3.964.249 6.099.899"/><path fill="#E86B88" d="M355 345c-9.574 3.402-19.052 4.31-29.125 3.75l-2.189-.116c-3.721-.269-6.432-.855-9.686-2.634l2.842-.076q5.25-.144 10.5-.296 2.266-.065 4.533-.125 3.27-.089 6.539-.187l3.967-.111C346 345 346 345 349.287 344.418 352 344 352 344 355 345"/><path fill="#F29AAB" d="M417 226h2q.69 2.03 1.375 4.062l.773 2.286L422 235l1.125 2.938c1.646 5.826.813 12.03.5 18l-.172 3.806q-.212 4.629-.453 9.256h-1l-.028-1.873c-.217-11.471-.605-22.194-4.132-33.166-.802-2.826-1.008-5.045-.84-7.961"/><path fill="#F08FA1" d="m346 265 3 2c-1 2-1 2-3 3a88 88 0 0 0-2.75 3.25c-2.835 3.369-5.726 6.107-9.25 8.75h-5z"/><path fill="#9F92E5" d="M35 180c.727 1.645.727 1.645 1 4-1.477 2.699-1.477 2.699-3.625 5.688-3.113 4.433-5.852 8.823-8.27 13.667C23 205 23 205 20 206c2.933-9.692 8.701-18.155 15-26"/><path fill="#96A2E5" d="M183 134c6.299 1.031 11.931 3.029 17.812 5.438l2.246.91c3.674 1.536 6.888 3.03 9.942 5.652l-3 1v-2h-5l-1-3-1.723-.148c-4.988-.483-9.503-1.328-14.277-2.852v-2h-5z"/><path fill="#A4AAEA" d="M12 225c2.102 7.482.958 14.607-1 22H9v26H8c-.734-33.799-.734-33.799 4-48"/><path fill="#6CB5EB" d="M150 244c0 5.145-2.68 8.218-6 12-3.521 3.221-6.49 5.457-11 7a173 173 0 0 0-4 2c2.855-3.925 6.098-6.894 9.762-10.02 3.927-3.474 7.57-7.236 11.238-10.98"/><path fill="#7DA6E9" d="m146 237 4 2-1.363 1.145c-3.294 2.818-6.49 5.66-9.477 8.804l-1.462 1.526a196 196 0 0 0-2.84 3.056c-1.342 1.407-1.342 1.407-3.858 3.469-2.328-.188-2.328-.188-4-1h3l.812-2.312c1.139-2.578 2.002-3.958 4.188-5.688h2v-2a140 140 0 0 1 5-5l2.312-2.312z"/><path fill="#A387E2" d="M119 132c-2.3 2.3-3.314 2.426-6.438 3-3.276.605-4.692 1.087-7.562 3-2.699.414-2.699.414-5.688.625l-3.011.227L94 139c6.94-6.708 15.769-7.53 25-7"/><path fill="#86AEDA" d="M262 365c1.442 2.884 1.588 5.824 2 9h2l1 3c-5.233-1.64-10.152-3.39-15-6l2-3 1.75.75 2.25.25c2.25-1.938 2.25-1.938 4-4"/><path fill="#45CAC9" d="m327.668 169.121 2.705.146c.464.03.464.03 2.815.17l2.849.16q3.481.192 6.963.403c-3.455 2.095-6.292 2.301-10.297 2.414-1.205.04-2.41.077-3.652.117l-3.801.094-3.848.117q-4.701.141-9.402.258l1-2c2.325-.388 4.66-.718 7-1 2.979-.993 4.592-1.055 7.668-.879"/><path fill="#8ECFF2" d="M98 382q3.157.212 6.312.438l3.551.246C111 383 111 383 114 384v2l2.195.184c4.976.431 9.892.886 14.805 1.816v1c-6.164.213-11.619-.531-17.625-1.875l-2.484-.527c-4.402-.956-8.644-2.072-12.891-3.598z"/><path fill="#74BBEF" d="M53 357c6.75 1.75 6.75 1.75 9 4a134 134 0 0 0 4.625 2.625l2.477 1.352L71 366l-1 3c-4.335-1.472-7.719-3.798-11.312-6.562l-1.667-1.249A148 148 0 0 1 53 358z"/><path fill="#F07F94" d="M377 337c-1.398 2.795-3.339 2.998-6.176 3.953l-2.074.672-2.027.695c-3.677 1.214-6.848 1.965-10.723 1.68l3-1v-2c11.337-4.592 11.337-4.592 18-4"/><path fill="#67B9EE" d="m107 287 4 1-1 2c-1.287 3.861-1.138 6.942-1 11h-2l-2 2c-.204-5.738-.271-10.605 2-16"/><path fill="#EF899C" d="m335 207 2 3-1.375 1.25C334 213 334 213 333.125 214.938c-1.511 2.769-3.612 4.21-6.125 6.062v-2l-2-1z"/><path fill="#7EE5CE" d="m412 22 .426 1.855C413 26 413 26 414.188 28.312c1.121 3.712.077 6.105-1.188 9.688h-2v5h-1c-.241-7.227.655-13.903 2-21"/><path fill="#6BBBEF" d="M224 360c2 1 2 1 2.812 3.25.248 3.627-.489 4.978-2.812 7.75-3.188 1.312-3.188 1.312-6 2l-1-3 2.938-1.25C223 367 223 367 223.875 364.812L224 363h-2v-2z"/><path fill="#74E2CA" d="M441 10c4.285 1.366 6.431 3.207 9.312 6.625l2.114 2.477L454 21l-1 2-1.875-1C449 21 449 21 447 21v-4l-3-2v-2h-2z"/><path fill="#CFA7C2" d="M275 380c6.564.901 6.564.901 9.75 1.625C287 382 287 382 290 381c2.688.438 2.688.438 5 1l1 4c-7.35-.576-14.014-2.71-21-5z"/><path fill="#C8A4C1" d="m287 338 3.324.84 4.364 1.098 2.185.552c3.695.928 7.38 1.808 11.127 2.51v1l-6 1v-2l-2.312.562C297 344 297 344 294 343l-1-1-4 2z"/><path fill="#AFBEF0" d="M55 239c1.125 3.375.755 4.608 0 8a122 122 0 0 0-.316 4.863l-.127 2.686-.119 2.763-.131 2.823A2237 2237 0 0 0 54 267h-1l-.184-2.773-.254-3.602-.246-3.586C52 254 52 254 51 252q.421-3.511 1-7h2v-2l-2-1 3-1z"/><path fill="#DD8BA2" d="M354.73 186.766 357 187l-2.25 2.188C352 192 352 192 350 194.688c-2.196 2.538-3.828 3.343-7 4.312 1.422-3.111 3.12-5.624 5.312-8.25l1.738-2.14c1.95-1.61 1.95-1.61 4.68-1.844"/><path fill="#70ABDC" d="M264 327c3.403 1.059 6.014 2.009 9 4 .375 2.5.375 2.5 0 5l-3 2v-3l-3 1 1-4-2-1.375-2-1.625z"/><path fill="#5BCED7" d="M391 122c1.597 2.536 2.065 3.608 1.562 6.625L392 131l1 2c-2.938-.375-2.938-.375-6-1l-1-2c2.484-6.742 2.484-6.742 5-8"/><path fill="#F4A5B5" d="M375 384q-3.777 1.014-7.562 2l-2.135.578c-4.574 1.18-8.581 1.621-13.303 1.422 1.312-2 1.312-2 4-4 2.819-.252 5.518-.187 8.344-.043 2.656.043 2.656.043 4.75-.508 2.281-.537 3.701-.158 5.906.551"/><path fill="#69D1DE" d="M438 109h2c-.616 4.319-1.642 8.252-3.062 12.375l-1.098 3.211L435 127l-2-2c.285-5.691 2.8-10.822 5-16"/><path fill="#56CBDD" d="M284 138v2a700 700 0 0 1-6.312 2.562l-3.551 1.442C271 145 271 145 268 144c4.067-4.709 9.927-6 16-6"/><path fill="#B397E6" d="M84 134v3a1578 1578 0 0 1-6.375 3.5l-1.828 1.012C71.227 144 71.227 144 69 144v-4l11-3v-2c2-1 2-1 4-1"/><path fill="#3CABEA" d="M91 377c3.815.673 7.336 1.754 11 3 2.327.69 4.662 1.345 7 2v2c-6.284-.668-12.319-2.16-18-5z"/><path fill="#6BB9EF" d="M180 280c0 3.908-1.506 5.116-4 8l1 2-7 5-1-4a56 56 0 0 1 5.438-5.75l1.603-1.535A386 386 0 0 1 180 280"/><path fill="#F1879C" d="m334 268 1 3-12 12-2-2z"/><path fill="#DF95A6" d="m390 193 7 1v2h2l4 7c-3 0-3 0-4.719-1.426l-1.781-1.886-1.781-1.864L393 196a530 530 0 0 0-3-3"/><path fill="#A099E3" d="m118 175-2 1v2a407 407 0 0 1-4.812 2.062l-2.708 1.161C106 182 106 182 103 181c4.095-4.778 8.811-6.442 15-6"/><path fill="#72BAF0" d="m81 321 1.504 1.137A569 569 0 0 0 96 332l-3 2c-2-1-2-1-4.5-3.562C86 328 86 328 84 328c-2.296-2.561-3-3.48-3-7"/><path fill="#66C0E9" d="m253 231 6 3v2l1.875.812C263 238 263 238 265 241l-1 3a1267 1267 0 0 1-5.5-5.375l-1.59-1.539c-1.342-1.324-2.63-2.702-3.91-4.086z"/><path fill="#C4A5B2" d="M412 154c4.835 2.611 8.871 5.375 13 9l-4 1v-2l-3.375-.812C414 160 414 160 412 157z"/><path fill="#EE6B85" d="m356 385-1 2c-3.083 1.028-5.331 1.166-8.562 1.188l-2.942.042C341 388 341 388 339 386q3.123-.544 6.25-1.062l3.516-.598c2.859-.301 4.567-.284 7.234.66"/><path fill="#67B7EE" d="m168 292 1 2-1 3 2.188.562c3.856 1.971 5.549 4.836 7.812 8.438-3.848 0-4.498-1.038-7.188-3.688l-2.167-2.074c-1.956-2.661-2.069-4.007-1.645-7.238z"/><path fill="#DA8FA3" d="M425 164c4.526 3.678 8.394 7.411 12 12-4.138 0-5.209-1.715-8.188-4.5l-2.73-2.531L424 167z"/><path fill="#F28FA0" d="M263 281c0 3.693-.882 5.005-3 8-2.5 2.375-2.5 2.375-5 4l-3-1z"/><path fill="#F1879B" d="M455 207c3 1 3 1 4.168 3.293 3.383 9.606 3.383 9.606 2.832 14.707-2.619-2.619-3.442-5.575-4.625-9l-.695-1.945C455 209.276 455 209.276 455 207"/><path fill="#9192E2" d="M75 201c-.61 3.063-1.577 5.201-3.375 7.75l-1.273 1.859L69 212h-3v-2h2l-1-3 3-2 1-3c2-1 2-1 4-1"/><path fill="#6EBCBA" d="M379 138c3.688.498 5.605 1.101 8 4l-5 5-3-2 3-5h-3z"/><path fill="#6FE3C9" d="m420 12 2 1v3c-2.93 2.735-5.177 4.726-9 6 1.394-4.435 3.606-6.874 7-10"/></svg>